<svg width="20" height="20" viewBox="0 0 20 20" fill="none" xmlns="http://www.w3.org/2000/svg">
<path d="M5 7.89169C5 8.11471 5.07671 8.30289 5.23013 8.45621L9.36541 12.6308C9.5537 12.826 9.75593 12.9166 10 12.9166C10.2441 12.9166 10.4533 12.826 10.6346 12.6378L14.7699 8.45621C14.9233 8.30289 15 8.11471 15 7.89169C15 7.44566 14.6444 7.08325 14.198 7.08325C13.9749 7.08325 13.7727 7.17385 13.6053 7.33415L9.99303 11L6.38773 7.33415C6.22734 7.17385 6.0251 7.08325 5.80195 7.08325C5.35565 7.08325 5 7.44566 5 7.89169Z" fill="black"/>
</svg>
