<svg width="20" height="20" viewBox="0 0 20 20" fill="none" xmlns="http://www.w3.org/2000/svg">
<g clip-path="url(#clip0_101_1111)">
<path d="M2.06048 7.4639C1.80521 8.26364 1.66696 9.11563 1.66699 10C1.66696 10.8845 1.80524 11.7365 2.06051 12.5363L10.0003 12.8986L17.9401 12.5363C18.1954 11.7366 18.3337 10.8845 18.3337 10.0001C18.3337 9.11566 18.1954 8.26364 17.9401 7.46387L10.0003 7.10156L2.06048 7.4639Z" fill="#F0F0F0"/>
<path d="M17.9403 7.46387L10.0005 7.10156L2.06061 7.46387C1.98496 7.70098 1.91982 7.94274 1.86523 8.18851H18.1356C18.081 7.94271 18.0159 7.70091 17.9403 7.46387Z" fill="#D80027"/>
<path d="M1.86523 11.8115C1.91976 12.0573 1.9849 12.299 2.06055 12.5361L2.06133 12.5362L10.0003 12.8985L17.9401 12.5362C18.0158 12.2991 18.0809 12.0573 18.1355 11.8115H1.86523Z" fill="#D80027"/>
<path d="M10.0003 18.3332C13.7183 18.3332 16.8671 15.8982 17.9401 12.5361H2.06055C3.13363 15.8982 6.28245 18.3332 10.0003 18.3332V18.3332Z" fill="#6DA544"/>
<path d="M10.0004 1.66675C6.28245 1.66678 3.13369 4.10177 2.06055 7.46385L17.9401 7.46388C16.8671 4.10174 13.7183 1.66672 10.0004 1.66675V1.66675Z" fill="#338AF3"/>
<path d="M5.47513 5.10892C5.47513 4.32842 6.02366 3.6764 6.75618 3.51644C6.64362 3.49183 6.52679 3.47852 6.4068 3.47852C5.50635 3.47852 4.77637 4.20846 4.77637 5.10895C4.77637 6.00944 5.50628 6.73938 6.4068 6.73938C6.52679 6.73938 6.64358 6.72604 6.75618 6.70146C6.02369 6.54143 5.47513 5.88942 5.47513 5.10892V5.10892Z" fill="#F0F0F0"/>
<path d="M7.72051 5.84985L7.83086 6.18953H8.18802L7.89909 6.3995L8.00944 6.73918L7.72051 6.52925L7.43151 6.73918L7.54189 6.3995L7.25293 6.18953H7.61009L7.72051 5.84985Z" fill="#F0F0F0"/>
<path d="M8.86009 5.84985L8.97047 6.18953H9.32764L9.03867 6.3995L9.14906 6.73918L8.86009 6.52925L8.57113 6.73918L8.68151 6.3995L8.39258 6.18953H8.74971L8.86009 5.84985Z" fill="#F0F0F0"/>
<path d="M9.9998 5.84985L10.1102 6.18953H10.4674L10.1784 6.3995L10.2887 6.73918L9.9998 6.52925L9.71081 6.73918L9.82122 6.3995L9.53223 6.18953H9.88942L9.9998 5.84985Z" fill="#F0F0F0"/>
<path d="M11.1395 5.84985L11.2498 6.18953H11.607L11.318 6.3995L11.4284 6.73918L11.1395 6.52925L10.8505 6.73918L10.9609 6.3995L10.6719 6.18953H11.029L11.1395 5.84985Z" fill="#F0F0F0"/>
<path d="M12.28 5.84985L12.3904 6.18953H12.7476L12.4586 6.3995L12.569 6.73918L12.28 6.52925L11.991 6.73918L12.1014 6.3995L11.8125 6.18953H12.1696L12.28 5.84985Z" fill="#F0F0F0"/>
<path d="M8.86009 4.66406L8.97047 5.00371H9.32764L9.03867 5.2137L9.14906 5.55335L8.86009 5.34342L8.57113 5.55335L8.68151 5.2137L8.39258 5.00371H8.74971L8.86009 4.66406Z" fill="#F0F0F0"/>
<path d="M9.9998 4.66406L10.1102 5.00371H10.4674L10.1784 5.2137L10.2887 5.55335L9.9998 5.34342L9.71081 5.55335L9.82122 5.2137L9.53223 5.00371H9.88942L9.9998 4.66406Z" fill="#F0F0F0"/>
<path d="M11.1395 4.66406L11.2498 5.00371H11.607L11.318 5.2137L11.4284 5.55335L11.1395 5.34342L10.8505 5.55335L10.9609 5.2137L10.6719 5.00371H11.029L11.1395 4.66406Z" fill="#F0F0F0"/>
<path d="M12.28 4.66406L12.3904 5.00371H12.7476L12.4586 5.2137L12.569 5.55335L12.28 5.34342L11.991 5.55335L12.1014 5.2137L11.8125 5.00371H12.1696L12.28 4.66406Z" fill="#F0F0F0"/>
<path d="M9.9998 3.47827L10.1102 3.81798H10.4674L10.1784 4.02791L10.2887 4.36763L9.9998 4.1577L9.71081 4.36763L9.82122 4.02791L9.53223 3.81798H9.88942L9.9998 3.47827Z" fill="#F0F0F0"/>
<path d="M11.1395 3.47827L11.2498 3.81798H11.607L11.318 4.02791L11.4284 4.36763L11.1395 4.1577L10.8505 4.36763L10.9609 4.02791L10.6719 3.81798H11.029L11.1395 3.47827Z" fill="#F0F0F0"/>
<path d="M12.28 3.47827L12.3904 3.81798H12.7476L12.4586 4.02791L12.569 4.36763L12.28 4.1577L11.991 4.36763L12.1014 4.02791L11.8125 3.81798H12.1696L12.28 3.47827Z" fill="#F0F0F0"/>
</g>
<defs>
<clipPath id="clip0_101_1111">
<rect width="16.6667" height="16.6667" fill="white" transform="translate(1.66699 1.66675)"/>
</clipPath>
</defs>
</svg>
