<svg width="22" height="22" viewBox="0 0 22 22" fill="none" xmlns="http://www.w3.org/2000/svg">
<g clip-path="url(#clip0_82_2007)">
<g clip-path="url(#clip1_82_2007)">
<path d="M11 20.1668C16.0626 20.1668 20.1667 16.0628 20.1667 11.0002C20.1667 5.93755 16.0626 1.8335 11 1.8335C5.93743 1.8335 1.83337 5.93755 1.83337 11.0002C1.83337 16.0628 5.93743 20.1668 11 20.1668Z" fill="#F0F0F0"/>
<path d="M3.72806 5.41943C3.00801 6.35626 2.46507 7.43603 2.14893 8.60904H6.91767L3.72806 5.41943Z" fill="#0052B4"/>
<path d="M19.8511 8.60901C19.5349 7.43603 18.9919 6.35626 18.2719 5.41943L15.0824 8.60901H19.8511Z" fill="#0052B4"/>
<path d="M2.14893 13.3916C2.4651 14.5646 3.00805 15.6443 3.72806 16.5811L6.91756 13.3916H2.14893Z" fill="#0052B4"/>
<path d="M16.5808 3.72859C15.644 3.00854 14.5642 2.46559 13.3912 2.14941V6.91812L16.5808 3.72859Z" fill="#0052B4"/>
<path d="M5.41882 18.272C6.35565 18.9921 7.43542 19.535 8.60839 19.8512V15.0825L5.41882 18.272Z" fill="#0052B4"/>
<path d="M8.60836 2.14941C7.43538 2.46559 6.35561 3.00854 5.41882 3.72855L8.60836 6.91809V2.14941Z" fill="#0052B4"/>
<path d="M13.3912 19.8512C14.5642 19.535 15.644 18.9921 16.5808 18.2721L13.3912 15.0825V19.8512Z" fill="#0052B4"/>
<path d="M15.0824 13.3916L18.2719 16.5812C18.9919 15.6444 19.5349 14.5646 19.8511 13.3916H15.0824Z" fill="#0052B4"/>
<path d="M20.0891 9.80452H12.1958H12.1957V1.91109C11.8043 1.86014 11.4053 1.8335 11 1.8335C10.5947 1.8335 10.1958 1.86014 9.8044 1.91109V9.80445V9.80449H1.91097C1.86001 10.1959 1.83337 10.5949 1.83337 11.0002C1.83337 11.4055 1.86001 11.8044 1.91097 12.1958H9.80433H9.80436V20.0892C10.1958 20.1402 10.5947 20.1668 11 20.1668C11.4053 20.1668 11.8043 20.1402 12.1957 20.0892V12.1959V12.1958H20.0891C20.1401 11.8044 20.1667 11.4055 20.1667 11.0002C20.1667 10.5949 20.1401 10.1959 20.0891 9.80452Z" fill="#D80027"/>
<path d="M13.3912 13.3916L17.4817 17.4821C17.6698 17.2941 17.8493 17.0974 18.0205 16.8936L14.5185 13.3916H13.3912V13.3916Z" fill="#D80027"/>
<path d="M8.60833 13.3916H8.60826L4.51782 17.482C4.70588 17.6702 4.9025 17.8496 5.10631 18.0209L8.60833 14.5188V13.3916Z" fill="#D80027"/>
<path d="M8.60905 8.60915V8.60908L4.51856 4.51855C4.33043 4.70661 4.15097 4.90323 3.97974 5.10705L7.4818 8.60911H8.60905V8.60915Z" fill="#D80027"/>
<path d="M13.3912 8.60884L17.4818 4.51828C17.2937 4.33015 17.0971 4.15069 16.8933 3.97949L13.3912 7.48155V8.60884Z" fill="#D80027"/>
</g>
</g>
<defs>
<clipPath id="clip0_82_2007">
<rect width="22" height="22" fill="white"/>
</clipPath>
<clipPath id="clip1_82_2007">
<rect width="18.3333" height="18.3333" fill="white" transform="translate(1.83337 1.8335)"/>
</clipPath>
</defs>
</svg>
