<svg width="20" height="20" viewBox="0 0 20 20" fill="none" xmlns="http://www.w3.org/2000/svg">
<g clip-path="url(#clip0_101_671)">
<path d="M10.0003 18.3334C14.6027 18.3334 18.3337 14.6025 18.3337 10.0001C18.3337 5.39771 14.6027 1.66675 10.0003 1.66675C5.39795 1.66675 1.66699 5.39771 1.66699 10.0001C1.66699 14.6025 5.39795 18.3334 10.0003 18.3334Z" fill="#F0F0F0"/>
<path d="M17.8153 12.8986C18.1503 11.9959 18.3337 11.0194 18.3337 10.0001C18.3337 8.98076 18.1503 8.00433 17.8153 7.10156H2.18532C1.85036 8.00433 1.66699 8.98076 1.66699 10.0001C1.66699 11.0194 1.85036 11.9959 2.18532 12.8986L10.0003 13.6233L17.8153 12.8986Z" fill="#0052B4"/>
<path d="M10.0006 18.3335C13.5836 18.3335 16.6381 16.072 17.8156 12.8987H2.18555C3.36299 16.072 6.41751 18.3335 10.0006 18.3335Z" fill="#D80027"/>
</g>
<defs>
<clipPath id="clip0_101_671">
<rect width="16.6667" height="16.6667" fill="white" transform="translate(1.66699 1.66675)"/>
</clipPath>
</defs>
</svg>
