<svg width="20" height="20" viewBox="0 0 20 20" fill="none" xmlns="http://www.w3.org/2000/svg">
<mask id="mask0_101_623" style="mask-type:alpha" maskUnits="userSpaceOnUse" x="1" y="1" width="18" height="18">
<circle cx="10.0003" cy="10.0001" r="8.33333" fill="#C4C4C4"/>
</mask>
<g mask="url(#mask0_101_623)">
<path d="M-0.9375 1.66675H21.2847V18.3334H-0.9375V1.66675Z" fill="#006600"/>
<path d="M-0.9375 1.66675H21.2847V13.5715H-0.9375V1.66675Z" fill="white"/>
<path d="M-0.9375 1.66675H21.2847V6.42866H-0.9375V1.66675Z" fill="#CC0000"/>
<path d="M9.50741 9.77851C9.5399 9.72261 9.58972 9.67881 9.64933 9.65374C9.70893 9.62868 9.77508 9.6237 9.83776 9.63958C9.90044 9.65545 9.95625 9.69131 9.99674 9.74172C10.0372 9.79214 10.0602 9.85437 10.0622 9.919V11.1094H10.286V9.91903C10.288 9.8544 10.3109 9.79217 10.3514 9.74176C10.3919 9.69134 10.4477 9.65549 10.5104 9.63961C10.5731 9.62374 10.6392 9.62871 10.6988 9.65378C10.7584 9.67885 10.8082 9.72264 10.8407 9.77854C10.8758 9.67299 10.8852 9.56063 10.8683 9.45071C10.8514 9.34079 10.8087 9.23645 10.7436 9.14627C10.6785 9.0561 10.5929 8.98267 10.4939 8.93203C10.3949 8.88139 10.2853 8.85498 10.1741 8.85498C10.0629 8.85498 9.95324 8.88139 9.85423 8.93203C9.75522 8.98267 9.66965 9.0561 9.60456 9.14627C9.53946 9.23645 9.49672 9.34079 9.47983 9.45071C9.46294 9.56063 9.47239 9.67299 9.50741 9.77854" fill="#F8C300"/>
<path d="M9.66699 9.46792C9.76469 9.44795 9.8662 9.45915 9.95719 9.49995C10.0482 9.54075 10.1241 9.60908 10.1741 9.69532C10.2242 9.60908 10.3001 9.54075 10.3911 9.49995C10.4821 9.45915 10.5836 9.44795 10.6813 9.46792C10.6645 9.34536 10.6038 9.23305 10.5106 9.15174C10.4174 9.07043 10.2979 9.02563 10.1741 9.02563C10.0504 9.02563 9.93092 9.07043 9.83769 9.15174C9.74445 9.23305 9.68382 9.34536 9.66699 9.46792" fill="white"/>
<path d="M10.0625 10.634C10.0473 10.8029 9.98497 10.9642 9.88257 11.0994C9.78018 11.2346 9.64184 11.3383 9.48336 11.3986C9.32487 11.459 9.15261 11.4736 8.98622 11.4407C8.81984 11.4079 8.66603 11.329 8.54234 11.213C8.48949 11.3456 8.40711 11.4645 8.30147 11.5606C8.19582 11.6567 8.06968 11.7275 7.93261 11.7676C7.79553 11.8077 7.65113 11.816 7.51036 11.792C7.36958 11.7679 7.23613 11.7122 7.12012 11.6289C7.20703 12.4962 8.50706 12.3191 8.60394 11.4758C9.01238 12.1928 9.91043 11.9874 10.1732 11.1091L10.0625 10.634Z" fill="#F8C300"/>
<path d="M9.19405 12.1741C9.01266 12.5656 8.65013 12.6329 8.33301 12.3168C8.33301 12.3168 8.46047 12.2267 8.59697 12.2019C8.57138 12.093 8.62384 11.9423 8.6978 11.8608C8.77537 11.9139 8.8836 12.0201 8.91113 12.1435C9.10228 12.1188 9.19405 12.1741 9.19405 12.1741V12.1741Z" fill="#F8C300"/>
<path d="M7.86426 13.0476C9.37126 12.599 10.9763 12.599 12.4833 13.0476" stroke="#F8C300" stroke-width="10.971"/>
<path d="M10.5338 7.87577L9.59277 7.19208H10.7559L9.81492 7.87577L10.1744 6.76953L10.5338 7.87577Z" fill="#F8C300"/>
</g>
</svg>
