<svg width="22" height="22" viewBox="0 0 22 22" fill="none" xmlns="http://www.w3.org/2000/svg">
<path d="M5.5 8.68079C5.5 8.92611 5.58438 9.1331 5.75314 9.30176L10.302 13.8939C10.5091 14.1085 10.7315 14.2082 11 14.2082C11.2685 14.2082 11.4986 14.1085 11.698 13.9015L16.2469 9.30176C16.4156 9.1331 16.5 8.92611 16.5 8.68079C16.5 8.19015 16.1088 7.7915 15.6179 7.7915C15.3724 7.7915 15.1499 7.89117 14.9658 8.06749L10.9923 12.0999L7.0265 8.06749C6.85007 7.89116 6.62762 7.7915 6.38215 7.7915C5.89121 7.7915 5.5 8.19015 5.5 8.68079Z" fill="black"/>
</svg>
