<svg width="343" height="184" viewBox="0 0 343 184" fill="none" xmlns="http://www.w3.org/2000/svg">
<rect width="343" height="184" fill="#2B2B2B"/>
<path d="M17.5161 33.0874V31H25.397V33.0874H26.6201V29.8135H25.3018V20.4312H18.6147L18.2119 27.0815C18.1313 28.4658 17.8457 29.4033 17.0767 29.8135H16.293V33.0874H17.5161ZM19.4497 27.1108L19.7939 21.6177H23.9834V29.8135H18.71V29.7256C19.23 29.103 19.3765 28.3047 19.4497 27.1108ZM31.4072 31.1392C33.6557 31.1392 35.0473 29.5864 35.0473 27.0596V27.0449C35.0473 24.5107 33.6557 22.9653 31.4072 22.9653C29.1587 22.9653 27.7671 24.5107 27.7671 27.0449V27.0596C27.7671 29.5864 29.1587 31.1392 31.4072 31.1392ZM31.4072 30.0112C29.9131 30.0112 29.0708 28.9199 29.0708 27.0596V27.0449C29.0708 25.1772 29.9131 24.0933 31.4072 24.0933C32.9013 24.0933 33.7436 25.1772 33.7436 27.0449V27.0596C33.7436 28.9199 32.9013 30.0112 31.4072 30.0112ZM40.1713 31.1392C42.0683 31.1392 43.1303 30.1211 43.4526 28.6929L43.4672 28.6123L42.2075 28.6196L42.1928 28.6636C41.8999 29.5425 41.226 30.0112 40.164 30.0112C38.7578 30.0112 37.8496 28.8467 37.8496 27.0303V27.0156C37.8496 25.2358 38.7431 24.0933 40.164 24.0933C41.2993 24.0933 42.0024 24.7231 42.2002 25.4995L42.2075 25.5215H43.4746L43.4672 25.4775C43.2329 24.0713 42.083 22.9653 40.164 22.9653C37.9521 22.9653 36.5459 24.562 36.5459 27.0156V27.0303C36.5459 29.5352 37.9594 31.1392 40.1713 31.1392ZM50.5981 23.1045H44.2114V24.1592H46.7675V31H48.0419V24.1592H50.5981V23.1045ZM52.8876 33.7686C54.2865 33.7686 54.9384 33.2559 55.5903 31.4834L58.6738 23.1045H57.3334L55.1728 29.6011H55.0556L52.8876 23.1045H51.5253L54.4477 31.0073L54.3012 31.4761C54.0155 32.3843 53.5761 32.7139 52.851 32.7139C52.6752 32.7139 52.4775 32.7065 52.3237 32.6772V33.7246C52.4994 33.7539 52.7192 33.7686 52.8876 33.7686ZM60.2675 31H61.5419V24.1592H65.3798V31H66.6542V23.1045H60.2675V31ZM74.1146 31H75.389V23.1045H74.1146V26.3711H70.2035V23.1045H68.9291V31H70.2035V27.4258H74.1146V31ZM80.9159 31.1392C83.1644 31.1392 84.556 29.5864 84.556 27.0596V27.0449C84.556 24.5107 83.1644 22.9653 80.9159 22.9653C78.6673 22.9653 77.2757 24.5107 77.2757 27.0449V27.0596C77.2757 29.5864 78.6673 31.1392 80.9159 31.1392ZM80.9159 30.0112C79.4217 30.0112 78.5795 28.9199 78.5795 27.0596V27.0449C78.5795 25.1772 79.4217 24.0933 80.9159 24.0933C82.41 24.0933 83.2523 25.1772 83.2523 27.0449V27.0596C83.2523 28.9199 82.41 30.0112 80.9159 30.0112Z" fill="#C4C4C4"/>
<path d="M22.888 46.832H17.224L16.504 49.736H19.648V59.312H16.792V62H25.744V59.312H22.888V46.832ZM33.5264 61.208C34.7264 62.168 36.7904 62.432 38.3024 62.432C41.4944 62.432 44.0864 60.368 44.0864 57.2C44.0864 54.896 42.6944 52.856 39.9344 52.76L43.6304 48.824V46.832H33.9344L33.2384 49.664H39.4064L35.6144 53.72L36.0224 55.04C36.5984 54.896 37.2464 54.8 37.8704 54.8C39.3104 54.8 40.6784 55.328 40.6784 57.08C40.6784 58.496 39.6464 59.504 37.8464 59.504C36.0944 59.504 34.4624 58.712 33.5264 58.088V61.208ZM50.8039 62.48L56.9719 46.832H46.2679L45.5479 49.736H52.3639L47.7799 61.328L50.8039 62.48ZM60.6498 57.296C60.6498 56.456 61.2018 55.568 61.9458 55.184C63.1458 55.808 66.5058 56.096 66.5058 57.968C66.5058 58.88 65.8578 59.768 63.7938 59.768C61.6338 59.768 60.6498 58.688 60.6498 57.296ZM58.4418 50.888C58.4418 52.352 59.0658 53.408 60.0018 54.104C58.3938 54.848 57.5298 56.216 57.5298 57.704C57.5298 60.68 60.0978 62.36 63.6497 62.432C66.7938 62.432 69.8658 61.088 69.8658 57.92C69.8658 55.784 68.6178 54.704 67.0578 54.008C68.0898 53.36 68.8818 52.088 68.8818 51.08C68.8818 48.368 66.8418 46.568 63.7938 46.568C60.4098 46.568 58.4418 48.296 58.4418 50.888ZM65.8338 51.248C65.8338 51.872 65.5698 52.64 64.9218 53.24C63.0978 52.688 61.4658 52.232 61.4658 50.888C61.4658 49.568 62.6178 49.184 63.6978 49.184C64.7058 49.184 65.8338 49.736 65.8338 51.248ZM82.7258 62.48L88.8938 46.832H78.1898L77.4698 49.736H84.2858L79.7018 61.328L82.7258 62.48ZM92.5716 57.296C92.5716 56.456 93.1236 55.568 93.8676 55.184C95.0676 55.808 98.4276 56.096 98.4276 57.968C98.4276 58.88 97.7796 59.768 95.7156 59.768C93.5556 59.768 92.5716 58.688 92.5716 57.296ZM90.3636 50.888C90.3636 52.352 90.9876 53.408 91.9236 54.104C90.3156 54.848 89.4516 56.216 89.4516 57.704C89.4516 60.68 92.0196 62.36 95.5716 62.432C98.7156 62.432 101.788 61.088 101.788 57.92C101.788 55.784 100.54 54.704 98.9796 54.008C100.012 53.36 100.804 52.088 100.804 51.08C100.804 48.368 98.7636 46.568 95.7156 46.568C92.3316 46.568 90.3636 48.296 90.3636 50.888ZM97.7556 51.248C97.7556 51.872 97.4916 52.64 96.8436 53.24C95.0196 52.688 93.3876 52.232 93.3876 50.888C93.3876 49.568 94.5396 49.184 95.6196 49.184C96.6276 49.184 97.7556 49.736 97.7556 51.248ZM109.088 46.568C105.824 46.568 103.28 48.728 103.28 51.92C103.28 55.136 105.8 56.936 108.536 56.936C109.928 56.936 111.32 56.408 112.184 55.52C111.872 58.328 110.312 59.6 107.96 59.6C106.784 59.6 105.512 59.264 104.528 58.616V61.448C105.536 62.12 106.784 62.432 108.2 62.432C113.264 62.432 115.52 58.208 115.52 53.696C115.52 49.232 113.144 46.568 109.088 46.568ZM109.328 49.232C111.2 49.352 112.256 50.624 112.256 52.856C111.656 53.864 110.312 54.464 109.328 54.464C107.888 54.464 106.472 53.528 106.472 51.848C106.472 50.192 107.648 49.256 109.328 49.232ZM134.874 50.288C133.914 49.832 132.378 49.64 131.418 49.64C127.386 49.64 124.842 52.232 124.842 56.096C124.842 60.056 127.65 62.408 131.298 62.408C132.378 62.408 133.914 62.192 135.018 61.64V58.76C134.01 59.36 132.546 59.6 131.322 59.6C129.522 59.6 128.226 58.28 128.226 56C128.226 53.672 129.45 52.424 131.682 52.424C132.882 52.424 134.178 52.736 134.874 53.168V50.288ZM141.307 66.56L148.699 50.048H145.219L142.531 57.32L139.723 50.048H136.075L141.067 60.776L137.947 66.56H141.307ZM161.654 56.216L162.83 62.024H166.046L163.67 50.024H162.614L157.478 57.464L152.366 50.024H151.286L148.91 62.024H152.15L153.206 56.24L157.478 62.264L161.654 56.216Z" fill="white"/>
<rect x="16" y="88" width="311" height="16" rx="5" fill="#434343"/>
<path d="M16 93C16 90.2386 18.2386 88 21 88H74V104H21C18.2386 104 16 101.761 16 99V93Z" fill="#007AFF"/>
<rect x="74" y="88" width="253" height="16" rx="5" fill="#434343"/>
<line x1="42.4167" y1="92.5" x2="42.4167" y2="99.5" stroke="white" stroke-opacity="0.2" stroke-linecap="round"/>
<line x1="68.3333" y1="92.5" x2="68.3333" y2="99.5" stroke="white" stroke-opacity="0.2" stroke-linecap="round"/>
<line x1="94.25" y1="92.5" x2="94.25" y2="99.5" stroke="white" stroke-opacity="0.2" stroke-linecap="round"/>
<line x1="120.167" y1="92.5" x2="120.167" y2="99.5" stroke="white" stroke-opacity="0.2" stroke-linecap="round"/>
<line x1="146.083" y1="92.5" x2="146.083" y2="99.5" stroke="white" stroke-opacity="0.2" stroke-linecap="round"/>
<line x1="172" y1="92.5" x2="172" y2="99.5" stroke="white" stroke-opacity="0.2" stroke-linecap="round"/>
<line x1="197.917" y1="92.5" x2="197.917" y2="99.5" stroke="white" stroke-opacity="0.2" stroke-linecap="round"/>
<line x1="223.833" y1="92.5" x2="223.833" y2="99.5" stroke="white" stroke-opacity="0.2" stroke-linecap="round"/>
<line x1="249.75" y1="92.5" x2="249.75" y2="99.5" stroke="white" stroke-opacity="0.2" stroke-linecap="round"/>
<line x1="275.667" y1="92.5" x2="275.667" y2="99.5" stroke="white" stroke-opacity="0.2" stroke-linecap="round"/>
<line x1="301.583" y1="92.5" x2="301.583" y2="99.5" stroke="white" stroke-opacity="0.2" stroke-linecap="round"/>
<rect x="16" y="124" width="149.5" height="44" rx="10" fill="#434343"/>
<path d="M55.6987 142.539H69.8013C69.9713 142.539 70.1343 142.471 70.2546 142.351C70.3748 142.231 70.4423 142.067 70.4423 141.897C70.4423 141.727 70.3748 141.564 70.2546 141.444C70.1343 141.324 69.9713 141.256 69.8013 141.256H55.6987C55.5287 141.256 55.3657 141.324 55.2454 141.444C55.1252 141.564 55.0577 141.727 55.0577 141.897C55.0577 142.067 55.1252 142.231 55.2454 142.351C55.3657 142.471 55.5287 142.539 55.6987 142.539ZM56.9808 140.615H68.5192C68.6892 140.615 68.8523 140.548 68.9725 140.428C69.0927 140.307 69.1603 140.144 69.1603 139.974C69.1603 139.804 69.0927 139.641 68.9725 139.521C68.8523 139.401 68.6892 139.333 68.5192 139.333H56.9808C56.8108 139.333 56.6477 139.401 56.5275 139.521C56.4073 139.641 56.3397 139.804 56.3397 139.974C56.3397 140.144 56.4073 140.307 56.5275 140.428C56.6477 140.548 56.8108 140.615 56.9808 140.615ZM70.4423 143.18H55.0577C54.8877 143.18 54.7246 143.247 54.6044 143.367C54.4842 143.487 54.4167 143.651 54.4167 143.821V152.795C54.4167 152.965 54.4842 153.128 54.6044 153.248C54.7246 153.368 54.8877 153.436 55.0577 153.436H70.4423C70.6123 153.436 70.7754 153.368 70.8956 153.248C71.0158 153.128 71.0833 152.965 71.0833 152.795V143.821C71.0833 143.651 71.0158 143.487 70.8956 143.367C70.7754 143.247 70.6123 143.18 70.4423 143.18ZM57.4359 146.199C57.3131 146.316 57.1505 146.382 56.9808 146.385C56.897 146.384 56.8143 146.366 56.7372 146.333C56.6595 146.301 56.588 146.255 56.5256 146.199C56.4085 146.076 56.3421 145.913 56.3397 145.744C56.3408 145.66 56.3582 145.577 56.391 145.5C56.4215 145.421 56.4673 145.349 56.5256 145.289C56.588 145.232 56.6595 145.186 56.7372 145.154C56.8937 145.09 57.069 145.091 57.2251 145.155C57.3811 145.22 57.5053 145.344 57.5705 145.5C57.6034 145.577 57.6208 145.66 57.6218 145.744C57.6194 145.913 57.553 146.076 57.4359 146.199ZM62.75 150.872C62.2429 150.872 61.7471 150.721 61.3255 150.44C60.9038 150.158 60.5752 149.758 60.3811 149.289C60.187 148.82 60.1362 148.305 60.2352 147.808C60.3341 147.31 60.5783 146.853 60.9369 146.495C61.2955 146.136 61.7524 145.892 62.2498 145.793C62.7472 145.694 63.2627 145.745 63.7312 145.939C64.1998 146.133 64.6002 146.462 64.882 146.883C65.1637 147.305 65.3141 147.801 65.3141 148.308C65.3141 148.988 65.044 149.64 64.5631 150.121C64.0822 150.602 63.43 150.872 62.75 150.872ZM68.9744 151.327C68.87 151.432 68.7323 151.498 68.5848 151.513C68.4373 151.528 68.2892 151.492 68.1655 151.41C68.0419 151.328 67.9504 151.206 67.9067 151.065C67.863 150.923 67.8698 150.77 67.9258 150.633C67.9819 150.496 68.0838 150.382 68.2142 150.312C68.3446 150.241 68.4954 150.218 68.6409 150.246C68.7865 150.274 68.9178 150.352 69.0125 150.466C69.1072 150.58 69.1594 150.724 69.1603 150.872C69.1579 151.042 69.0915 151.204 68.9744 151.327Z" fill="white"/>
<path d="M80.0898 146.386H81.5327C82.917 146.386 83.7153 147.001 83.7153 147.99V148.004C83.7153 149 82.8584 149.652 81.5767 149.652C80.3022 149.652 79.438 149.081 79.3501 148.129L79.3428 148.085H77.5117L77.519 148.151C77.6216 150.011 79.2329 151.264 81.5693 151.264C83.8765 151.264 85.6416 149.938 85.6416 148.114V148.1C85.6416 146.649 84.6675 145.697 83.2832 145.558V145.434C84.4551 145.17 85.2681 144.203 85.2681 143.039V143.024C85.2681 141.332 83.7593 140.167 81.6133 140.167C79.3794 140.167 77.9072 141.339 77.7827 143.207L77.7754 143.302H79.5552L79.5625 143.258C79.6504 142.328 80.4048 141.779 81.5547 141.779C82.7339 141.779 83.4297 142.343 83.4297 143.236V143.251C83.4297 144.21 82.6826 144.855 81.5034 144.855H80.0898V146.386ZM89.5864 151.132C90.6411 151.132 91.4907 150.678 91.9302 149.901H92.0547V151H93.8564V145.529C93.8564 143.837 92.6992 142.841 90.6411 142.841C88.7368 142.841 87.4477 143.734 87.272 145.082L87.2646 145.148H88.9858L88.9931 145.119C89.1763 144.591 89.7182 144.291 90.5532 144.291C91.5346 144.291 92.0547 144.73 92.0547 145.529V146.217L89.9966 146.342C88.0483 146.459 86.957 147.294 86.957 148.722V148.737C86.957 150.194 88.063 151.132 89.5864 151.132ZM88.7588 148.649V148.634C88.7588 147.975 89.2348 147.602 90.2529 147.536L92.0547 147.418V148.063C92.0547 149.015 91.2417 149.733 90.143 149.733C89.3374 149.733 88.7588 149.33 88.7588 148.649ZM101.156 151H102.979V142.995H101.156V146.166H97.7793V142.995H95.9555V151H97.7793V147.58H101.156V151ZM109.495 151H111.289V142.995H107.986C106.119 142.995 104.888 144.042 104.888 145.712V145.727C104.888 146.825 105.555 147.682 106.646 148.004L104.5 151H106.58L108.455 148.305H109.495V151ZM108.125 146.964C107.254 146.964 106.712 146.437 106.712 145.719V145.705C106.712 144.906 107.247 144.394 108.125 144.394H109.495V146.964H108.125ZM119.541 142.995H112.788V144.408H115.249V151H117.073V144.408H119.541V142.995ZM121.032 151H124.438C126.306 151 127.499 149.916 127.499 148.217V148.202C127.499 146.503 126.306 145.412 124.438 145.412H122.856V142.995H121.032V151ZM124.204 146.818C125.09 146.818 125.661 147.367 125.661 148.195V148.209C125.661 149.03 125.097 149.594 124.204 149.594H122.856V146.818H124.204Z" fill="white"/>
<rect x="177.5" y="124" width="149.5" height="44" rx="10" fill="#434343"/>
<circle cx="209.25" cy="146" r="8.33333" fill="white"/>
<path d="M209.028 148.909C209.143 148.909 209.245 148.861 209.323 148.787C209.398 148.712 209.446 148.606 209.446 148.491V146.203H211.734C211.85 146.203 211.952 146.155 212.03 146.08C212.105 146.005 212.152 145.9 212.152 145.784C212.152 145.553 211.965 145.366 211.737 145.37H209.449V143.081C209.449 142.85 209.262 142.663 209.034 142.667C208.803 142.667 208.616 142.854 208.62 143.081V145.37H206.332C206.1 145.37 205.913 145.557 205.917 145.784C205.917 146.016 206.104 146.203 206.332 146.199H208.62V148.487C208.609 148.722 208.796 148.909 209.028 148.909Z" fill="#2B2B2B"/>
<path d="M233.467 151V140.431H224.627V151H226.517V142.021H231.578V151H233.467ZM239.265 151.161C241.66 151.161 243.118 149.594 243.118 147.001V146.986C243.118 144.408 241.653 142.841 239.265 142.841C236.885 142.841 235.413 144.416 235.413 146.986V147.001C235.413 149.594 236.863 151.161 239.265 151.161ZM239.265 149.682C237.998 149.682 237.273 148.693 237.273 147.008V146.994C237.273 145.309 237.998 144.313 239.265 144.313C240.525 144.313 241.25 145.309 241.25 146.994V147.008C241.25 148.693 240.532 149.682 239.265 149.682ZM244.858 151H246.682V144.408H249.985V151H251.809V142.995H244.858V151ZM257.409 151.161C259.804 151.161 261.261 149.594 261.261 147.001V146.986C261.261 144.408 259.796 142.841 257.409 142.841C255.028 142.841 253.556 144.416 253.556 146.986V147.001C253.556 149.594 255.006 151.161 257.409 151.161ZM257.409 149.682C256.142 149.682 255.416 148.693 255.416 147.008V146.994C255.416 145.309 256.142 144.313 257.409 144.313C258.668 144.313 259.393 145.309 259.393 146.994V147.008C259.393 148.693 258.676 149.682 257.409 149.682ZM265.272 147.536L265.499 144.408H267.835V151H269.659V142.995H263.917L263.639 147.389C263.565 148.539 263.309 149.469 262.577 149.469C262.372 149.469 262.174 149.44 262.093 149.418V150.985C262.21 151.022 262.452 151.073 262.782 151.073C264.408 151.073 265.118 149.843 265.272 147.536ZM276.995 151H278.819V142.995H276.995V146.166H273.619V142.995H271.795V151H273.619V147.58H276.995V151ZM280.954 151H282.756L286.125 145.609H286.279V151H288.081V142.995H286.279L282.903 148.356H282.756V142.995H280.954V151ZM296.332 142.995H289.579V144.408H292.04V151H293.864V144.408H296.332V142.995ZM297.824 151H301.229C303.097 151 304.291 149.916 304.291 148.217V148.202C304.291 146.503 303.097 145.412 301.229 145.412H299.647V142.995H297.824V151ZM300.995 146.818C301.881 146.818 302.452 147.367 302.452 148.195V148.209C302.452 149.03 301.889 149.594 300.995 149.594H299.647V146.818H300.995Z" fill="white"/>
</svg>
