<svg width="423" height="408" viewBox="0 0 423 408" fill="none" xmlns="http://www.w3.org/2000/svg">
<path d="M60.3539 319.693C91.0475 319.434 116.118 310.012 118.195 298.316V305.494C119.077 317.837 99.5985 329.254 61.8114 330.489C26.3881 331.725 3.06577 319.997 2.18157 307.654V299.238C4.37334 310.913 29.6118 319.951 60.3539 319.693Z" fill="white"/>
<path d="M118.334 296.677C118.24 284.23 92.1258 274.367 60.0077 274.637C27.8897 274.907 1.93023 285.212 2.01622 297.652C2.10222 310.092 28.2271 319.962 60.3451 319.693C92.4631 319.423 118.431 309.117 118.334 296.677Z" fill="#50E170"/>
<path d="M0.990845 297.662C0.942337 291.159 7.18469 285.09 18.5691 280.57C55.6131 265.862 123.06 275.54 119.227 298.42C119.227 306.948 120.004 310.33 115.496 315.564C104.121 328.791 73.7007 331.66 56.623 331.66C22.8534 331.66 2.00734 319.843 1.13637 307.654C1.14298 297.675 0.999672 298.595 0.990845 297.662ZM60.0165 275.718C12.1459 276.119 -17.3526 298.484 19.5327 312.423C55.1655 325.889 117.448 315.714 117.302 296.684C117.212 285.058 90.9989 275.467 60.0165 275.718ZM3.21126 307.573C4.03372 319.027 26.6482 330.623 61.7783 329.408C87.3011 328.576 106.319 323.003 113.962 314.122C117.536 309.973 117.163 307.041 117.163 303.288C101.307 326.17 18.8932 326.423 3.21126 304.113V307.573Z" fill="black"/>
<path d="M59.2139 316.906H60.4795C90.8556 316.65 114.579 307.301 114.489 295.619C114.398 283.937 90.5051 275.022 60.1598 275.245C29.8146 275.469 6.06016 284.85 6.15057 296.53C6.23876 308.048 29.4464 316.906 59.2139 316.906ZM112.423 295.633C112.5 305.752 88.7058 314.504 60.4619 314.739C32.2181 314.974 8.29382 306.628 8.21664 296.507C8.13947 286.385 31.9336 277.638 60.1753 277.4C88.4169 277.163 112.346 285.516 112.423 295.638V295.633Z" fill="white"/>
<path d="M286.102 387.868C337.611 387.434 379.719 371.567 383.534 351.822V362.6C383.534 396.901 321.574 404.687 288.774 405.803C228.849 407.647 189.587 388.213 188.109 366.922C188.109 364.055 188.145 366.788 187.889 351.914C190.048 372.339 233.255 388.31 286.102 387.868Z" fill="white"/>
<path d="M355.266 320.947C369.261 326.278 387.417 336.729 384.575 351.94C384.575 351.94 384.85 363.188 384.868 363.446C385.007 366.512 384.534 369.573 383.479 372.438C382.424 375.301 380.809 377.903 378.738 380.079C359.958 401.905 309.323 407.004 280.94 407.004C223.755 407.004 188.486 387.181 187.086 366.92C186.83 350.432 186.78 350.663 186.778 350.432C186.497 315.334 293.233 297.313 355.266 320.947ZM189.15 366.841C190.541 386.934 228.161 406.607 288.75 404.722C331.968 403.251 364.203 393.743 377.199 378.634C384.061 370.661 382.824 365.647 382.509 357.575C378.465 364.912 369.292 371.647 355.696 377.085C301.658 398.703 206.098 389.622 189.046 358.691C189.163 365.873 189.146 364.075 189.141 366.841H189.15Z" fill="black"/>
<path d="M349.229 322.864C385.214 335.812 385.391 358.053 349.604 371.599C294.891 392.312 195.584 379.918 195.344 348.526C195.11 317.869 292.734 302.544 349.229 322.864ZM286.071 379.706C361.46 379.074 405.214 345.292 348.558 324.909C312.866 312.07 256.575 313.153 222.748 325.965C167.493 346.887 208.936 380.473 286.071 379.706Z" fill="white"/>
<path d="M253.563 353.542C305.071 353.108 347.178 337.241 350.993 317.496V328.274C350.993 362.575 289.032 370.361 256.233 371.479C196.308 373.323 157.045 353.887 155.568 332.596C155.568 329.729 155.603 332.462 155.347 317.588C157.508 338.015 200.713 353.984 253.563 353.542Z" fill="white"/>
<path d="M155.261 316.101C155.101 294.967 198.848 277.467 252.976 277.013C307.103 276.559 351.114 293.323 351.276 314.456C351.439 335.588 307.691 353.087 253.563 353.542C199.436 353.996 155.425 337.234 155.261 316.101Z" fill="#50E170"/>
<path d="M154.227 316.108C153.958 281.008 260.691 262.997 322.716 286.623C336.713 291.952 354.867 302.403 352.025 317.614C352.025 317.614 352.302 328.862 352.32 329.122C352.459 332.188 351.986 335.249 350.93 338.112C349.874 340.977 348.259 343.579 346.188 345.753C327.41 367.579 276.768 372.687 248.392 372.687C191.207 372.687 155.938 352.864 154.536 332.601C154.282 316.106 154.23 316.339 154.227 316.108ZM322.01 288.651C261.725 265.691 156.038 282.707 156.296 316.081C156.549 349.36 262.16 364.85 322.411 340.744C359.689 325.829 359.513 302.938 322.01 288.651ZM156.595 332.518C157.989 352.608 195.609 372.281 256.198 370.398C299.416 368.927 331.648 359.417 344.647 344.308C351.506 336.335 350.269 331.321 349.956 323.249C345.912 330.588 336.737 337.324 323.144 342.761C269.106 364.377 173.543 355.296 156.492 324.367C156.622 331.547 156.595 329.749 156.595 332.518Z" fill="black"/>
<path d="M316.678 288.541C352.662 301.486 352.84 323.726 317.053 337.273C262.341 357.988 163.034 345.592 162.794 314.2C162.571 283.546 260.193 268.22 316.678 288.541ZM253.518 345.38C328.907 344.748 372.661 310.966 316.006 290.583C280.316 277.744 224.024 278.827 190.197 291.639C134.951 312.561 176.394 346.147 253.53 345.38H253.518Z" fill="white"/>
<path d="M308.423 317.224C359.932 316.793 402.041 300.923 405.855 281.178V291.959C405.855 326.257 343.895 334.044 311.095 335.162C251.168 337.006 211.908 317.57 210.431 296.279C210.431 293.413 210.466 296.145 210.21 281.271C212.369 301.693 255.576 317.667 308.423 317.224Z" fill="white"/>
<path d="M210.124 279.782C209.961 258.649 253.709 241.15 307.836 240.696C361.964 240.242 405.975 257.004 406.137 278.138C406.299 299.27 362.552 316.77 308.424 317.224C254.296 317.678 210.285 300.916 210.124 279.782Z" fill="#50E170"/>
<path d="M209.09 279.796C208.819 244.695 315.552 226.684 377.576 250.31C391.574 255.639 409.727 266.09 406.885 281.303C406.885 281.303 407.163 292.549 407.18 292.81C407.32 295.875 406.847 298.936 405.791 301.801C404.735 304.664 403.12 307.267 401.048 309.44C382.271 331.268 331.633 336.367 303.252 336.367C246.068 336.367 210.799 316.544 209.396 296.283C209.143 279.796 209.092 280.026 209.09 279.796ZM376.875 252.334C316.59 229.374 210.905 246.389 211.16 279.763C211.416 313.034 317.025 328.516 377.274 304.427C414.55 289.511 414.373 266.62 376.875 252.334ZM211.467 296.2C212.858 316.291 250.478 335.964 311.067 334.081C354.285 332.61 386.52 323.1 399.516 307.993C406.378 300.017 405.141 295.004 404.826 286.932C400.782 294.271 391.609 301.006 378.013 306.444C323.975 328.062 228.415 318.981 211.363 288.05C211.485 295.239 211.465 293.434 211.462 296.2H211.467Z" fill="black"/>
<path d="M371.55 252.223C407.535 265.168 407.712 287.409 371.925 300.955C317.212 321.67 217.906 309.274 217.665 277.882C217.431 247.228 315.053 231.902 371.55 252.223ZM308.392 309.069C383.781 308.437 427.535 274.655 370.877 254.272C335.187 241.436 278.896 242.517 245.069 255.328C189.812 276.243 231.257 309.83 308.392 309.069Z" fill="white"/>
<path d="M261.311 281.409C312.82 280.978 354.926 265.108 358.741 245.363V256.144C358.741 290.442 296.781 298.229 263.981 299.347C204.056 301.191 164.794 281.755 163.316 260.463C163.316 257.598 163.352 260.332 163.096 245.456C165.257 265.892 208.461 281.87 261.311 281.409Z" fill="white"/>
<path d="M163.012 243.976C162.849 222.844 206.596 205.344 260.724 204.89C314.852 204.436 358.863 221.198 359.025 242.332C359.187 263.465 315.44 280.964 261.312 281.418C207.185 281.872 163.173 265.11 163.012 243.976Z" fill="#50E170"/>
<path d="M161.976 243.985C161.707 208.884 268.44 190.873 330.464 214.499C344.461 219.831 362.615 230.279 359.773 245.492C359.773 245.492 360.049 256.739 360.068 256.999C360.208 260.065 359.734 263.126 358.678 265.989C357.622 268.854 356.008 271.456 353.936 273.63C335.159 295.458 284.521 300.557 256.14 300.557C198.956 300.557 163.687 280.734 162.284 260.473C162.031 243.985 161.978 244.216 161.976 243.985ZM329.759 216.528C269.474 193.568 163.786 210.583 164.042 243.957C164.298 277.228 269.908 292.71 330.158 268.621C367.435 253.705 367.261 230.817 329.759 216.528ZM164.348 260.394C165.74 280.485 203.359 300.158 263.948 298.275C307.162 296.804 339.39 287.294 352.399 272.189C359.259 264.214 358.022 259.2 357.709 251.128C353.665 258.467 344.49 265.203 330.896 270.64C276.858 292.259 181.296 283.177 164.245 252.246C164.37 259.424 164.353 257.628 164.348 260.394Z" fill="black"/>
<path d="M324.438 216.408C360.421 229.353 360.6 251.594 324.811 265.14C270.1 285.855 170.791 273.459 170.553 242.067C170.317 211.422 267.948 196.096 324.438 216.408ZM261.278 273.247C336.667 272.615 380.421 238.833 323.765 218.45C288.073 205.614 231.784 206.695 197.957 219.508C142.704 240.438 184.143 274.033 261.278 273.256V273.247Z" fill="white"/>
<path d="M205.619 226.006C211.529 215.525 237.854 213.584 246.504 221.368C249.673 224.22 249.499 227.797 253.518 229.756C260.511 233.131 268.845 229.961 270.378 226.663C270.775 224.92 271.343 223.228 272.074 221.608C276.369 215.431 294.172 211.66 309.382 219.61C319.783 225.372 317 238.359 299.709 240.094C289.594 241.316 273.86 236.637 269.379 242.153C267.148 244.902 272.118 245.951 277.198 248.607C284.428 252.564 284.785 259.915 277.82 264.281C266.929 270.605 236.207 267.342 236.957 256.444C236.957 248.341 253.47 244.748 250.595 241.401C249.433 239.986 244.518 239.14 239.409 239.47C234.694 239.776 230.035 241.016 225.147 241.016C213.606 241.032 200.806 234.541 205.619 226.006Z" fill="white"/>
<path d="M243.678 248.678C295.186 248.247 337.295 232.379 341.11 212.632V223.413C341.11 257.711 279.149 265.5 246.348 266.616C186.423 268.459 147.16 249.026 145.685 227.732C145.685 224.867 145.72 227.601 145.465 212.727C147.623 233.147 190.828 249.118 243.678 248.678Z" fill="white"/>
<path d="M145.379 211.233C145.215 190.099 188.965 172.6 243.092 172.146C297.219 171.691 341.23 188.454 341.392 209.588C341.555 230.72 297.807 248.219 243.679 248.673C189.551 249.127 145.542 232.366 145.379 211.233Z" fill="#50E170"/>
<path d="M144.344 211.24C144.073 176.142 250.806 158.128 312.831 181.755C326.828 187.086 344.982 197.537 342.14 212.748C342.14 212.748 342.417 223.996 342.435 224.254C342.574 227.32 342.101 230.381 341.045 233.246C339.99 236.109 338.374 238.711 336.303 240.885C317.525 262.713 266.887 267.812 238.507 267.812C181.322 267.812 146.053 247.989 144.651 227.728C144.397 211.24 144.344 211.471 144.344 211.24ZM312.125 183.783C251.84 160.823 146.155 177.838 146.411 211.213C146.664 244.485 252.275 259.966 312.524 235.876C349.804 220.963 349.628 198.072 312.125 183.783ZM146.715 227.649C148.108 247.742 185.728 267.415 246.317 265.53C289.535 264.059 321.77 254.551 334.766 239.442C341.626 231.469 340.389 226.453 340.076 218.383C336.032 225.72 326.859 232.455 313.263 237.893C259.225 259.511 163.662 250.43 146.611 219.499C146.739 226.679 146.719 224.883 146.715 227.649Z" fill="black"/>
<path d="M306.804 183.677C342.79 196.622 342.966 218.863 307.179 232.412C252.467 253.124 153.16 240.728 152.92 209.336C152.686 178.677 250.308 163.351 306.804 183.677ZM243.644 240.516C319.033 239.884 362.789 206.105 306.132 185.719C270.442 172.883 214.15 173.964 180.323 186.777C125.064 207.693 166.518 241.279 243.644 240.511V240.516Z" fill="white"/>
<path d="M234.968 50.5978C208.808 99.42 226.408 167.245 273.05 194.4C319.693 221.555 382.275 201.497 408.548 152.742C414.78 141.174 418.77 128.436 420.288 115.256C421.807 102.075 420.824 88.7108 417.397 75.9275C413.97 63.1442 408.165 51.1927 400.315 40.7571C392.464 30.3214 382.723 21.606 371.647 15.11C324.78 -12.1789 261.06 1.9047 234.968 50.5978Z" fill="white"/>
<path d="M313.788 206.743C260.312 206.743 216.962 161.427 216.962 105.526C216.962 49.6251 260.312 4.30859 313.788 4.30859C367.263 4.30859 410.614 49.6251 410.614 105.526C410.614 161.427 367.263 206.743 313.788 206.743Z" fill="#9747FF"/>
<path d="M255.944 23.06C311.958 -22.012 398.59 1.98075 418.355 75.6462C433.102 130.618 402.347 186.369 348.733 203.074C337.394 206.561 325.602 208.163 313.788 207.824C287.845 207.792 262.972 197.007 244.627 177.831C226.281 158.656 215.96 132.657 215.928 105.537C215.928 71.7231 232.095 42.2514 255.944 23.06ZM407.648 152.209C413.808 140.764 417.75 128.163 419.249 115.125C420.748 102.087 419.774 88.868 416.384 76.2234C412.994 63.5789 407.253 51.7565 399.49 41.4322C391.727 31.1079 382.095 22.4837 371.142 16.0528C349.779 3.7224 324.993 -0.501048 300.99 4.09904C324.255 0.891863 347.848 6.53081 367.468 19.9876C387.089 33.4445 401.43 53.8232 407.879 77.4096C414.327 100.996 412.454 126.219 402.599 148.482C392.744 170.745 375.565 188.565 354.192 198.694C376.737 190.346 395.692 173.863 407.648 152.209ZM313.788 205.664C332.735 205.664 351.256 199.792 367.01 188.788C382.763 177.785 395.042 162.145 402.292 143.846C409.543 125.548 411.44 105.413 407.743 85.9869C404.046 66.5615 394.921 48.7185 381.523 34.7141C368.125 20.7098 351.056 11.1731 332.472 7.31037C313.889 3.44765 294.628 5.43225 277.124 13.0132C259.62 20.5941 244.66 33.4309 234.135 49.9001C223.61 66.3693 217.994 85.7313 217.996 105.537C218.027 132.084 228.13 157.534 246.088 176.305C264.046 195.075 288.393 205.634 313.788 205.664Z" fill="black"/>
<path d="M313.788 199.185C331.509 199.185 348.832 193.692 363.566 183.401C378.301 173.109 389.785 158.481 396.566 141.367C403.347 124.252 405.121 105.42 401.664 87.251C398.206 69.0825 389.672 52.3938 377.14 39.2957C364.609 26.1973 348.644 17.2779 331.263 13.6652C313.883 10.0524 295.867 11.9086 279.496 18.9992C263.125 26.0899 249.132 38.0962 239.289 53.4998C229.445 68.9034 224.192 87.0129 224.194 105.537C224.223 130.366 233.672 154.17 250.468 171.726C267.264 189.282 290.036 199.157 313.788 199.185ZM313.788 14.029C331.102 14.0267 348.027 19.3915 362.425 29.4453C376.822 39.499 388.043 53.7897 394.671 70.5107C401.298 87.2314 403.033 105.631 399.657 123.383C396.28 141.134 387.944 157.441 375.702 170.239C363.46 183.038 347.862 191.755 330.881 195.287C313.9 198.818 296.298 197.007 280.302 190.081C264.306 183.156 250.633 171.427 241.014 156.378C231.395 141.329 226.26 123.637 226.26 105.537C226.284 81.2773 235.512 58.0176 251.922 40.8622C268.331 23.7065 290.58 14.0564 313.788 14.029Z" fill="white"/>
</svg>
