<svg width="48" height="24" viewBox="0 0 48 24" fill="none" xmlns="http://www.w3.org/2000/svg">
<path fill-rule="evenodd" clip-rule="evenodd" d="M4.35086 20.41L12.7727 12.008L4.35086 3.58984C4.14344 3.9246 4 4.46675 4 5.24774V12.008V18.7518C4 19.5329 4.14344 20.075 4.35086 20.41Z" fill="white"/>
<path fill-rule="evenodd" clip-rule="evenodd" d="M5.37158 3L13.57 11.2106L16.3296 8.43656L7.73222 3.78107C6.75934 3.25513 6.15325 3 5.45153 3C5.41939 3 5.38751 3 5.37158 3Z" fill="white"/>
<path fill-rule="evenodd" clip-rule="evenodd" d="M17.3658 8.99463L14.3672 12.0081L17.3658 15.0054L19.1841 14.0168C19.8539 13.6499 20.8749 12.9803 20.8749 12.0081C20.8749 11.0195 19.8539 10.3499 19.1841 9.98301L17.3658 8.99463Z" fill="white"/>
<path fill-rule="evenodd" clip-rule="evenodd" d="M16.3296 15.5628L13.57 12.7891L5.37158 20.9999C5.38754 20.9999 5.41939 20.9999 5.45153 20.9999C6.15321 20.9999 6.75934 20.7445 7.73222 20.2183L16.3296 15.5628Z" fill="white"/>
<path d="M38.9984 4.18979C39.3902 3.7541 39.6889 3.24802 39.8774 2.70062C40.0659 2.15323 40.1405 1.57529 40.0969 1C38.8941 1.09368 37.7776 1.63951 36.9879 2.5199C36.6098 2.94185 36.3232 3.43272 36.1452 3.96345C35.9672 4.49418 35.9014 5.05397 35.9516 5.60969C36.5383 5.61441 37.1183 5.4888 37.6466 5.24258C38.1749 4.99636 38.6375 4.63613 38.9984 4.18979ZM41.6099 11.6293C41.6168 10.8631 41.826 10.1112 42.2177 9.44464C42.6093 8.77807 43.1705 8.21878 43.8483 7.81955C43.4206 7.22482 42.8551 6.73445 42.1967 6.38732C41.5383 6.04018 40.8052 5.84583 40.0554 5.81968C38.4388 5.65969 36.9465 6.72962 36.0864 6.72962C35.2262 6.72962 34.0137 5.83968 32.6665 5.85968C31.7858 5.88767 30.9276 6.13544 30.1757 6.57881C29.4238 7.02219 28.8038 7.64604 28.3762 8.38951C26.5523 11.4493 27.9099 15.999 29.7338 18.4688C30.5628 19.6788 31.5991 21.0487 32.9671 20.9987C34.335 20.9487 34.7806 20.1787 36.3662 20.1787C37.9517 20.1787 38.4388 20.9987 39.786 20.9687C41.1332 20.9387 42.0866 19.7288 42.9571 18.5188C43.5737 17.6404 44.0554 16.6805 44.3872 15.669C43.5659 15.3311 42.8652 14.7684 42.3716 14.0504C41.878 13.3325 41.6132 12.4908 41.6099 11.6293Z" fill="white"/>
</svg>
