<svg width="311" height="135" viewBox="0 0 311 135" fill="none" xmlns="http://www.w3.org/2000/svg">
<path d="M117.92 52.2L133.34 13.08H106.58L104.78 20.34H121.82L110.36 49.32L117.92 52.2ZM143.975 35.34L154.535 23.22V35.34H143.975ZM154.535 42V51H162.275V42H166.295L168.695 35.34H162.275V13.08H155.555L134.615 37.2L136.235 42H154.535ZM179.742 39.24C179.742 37.14 181.122 34.92 182.982 33.96C185.982 35.52 194.382 36.24 194.382 40.92C194.382 43.2 192.762 45.42 187.602 45.42C182.202 45.42 179.742 42.72 179.742 39.24ZM174.222 23.22C174.222 26.88 175.782 29.52 178.122 31.26C174.102 33.12 171.942 36.54 171.942 40.26C171.942 47.7 178.362 51.9 187.242 52.08C195.102 52.08 202.782 48.72 202.782 40.8C202.782 35.46 199.662 32.76 195.762 31.02C198.342 29.4 200.322 26.22 200.322 23.7C200.322 16.92 195.222 12.42 187.602 12.42C179.142 12.42 174.222 16.74 174.222 23.22ZM192.702 24.12C192.702 25.68 192.042 27.6 190.422 29.1C185.862 27.72 181.782 26.58 181.782 23.22C181.782 19.92 184.662 18.96 187.362 18.96C189.882 18.96 192.702 20.34 192.702 24.12Z" fill="white"/>
<rect x="0.5" y="79.5" width="310" height="15" rx="7.5" fill="url(#paint0_linear_79_2503)"/>
<rect x="0.5" y="79.5" width="310" height="15" rx="7.5" stroke="black"/>
<rect x="248.5" y="77.5" width="3" height="19" rx="1.5" fill="white" stroke="#212121"/>
<path d="M61.4209 126H65.5444C67.793 126 69.126 124.894 69.126 123.041V123.026C69.126 121.635 68.2104 120.646 66.7676 120.463V120.346C67.7856 120.163 68.5913 119.167 68.5913 118.075V118.061C68.5913 116.449 67.4048 115.431 65.4639 115.431H61.4209V126ZM65.1855 116.596C66.4966 116.596 67.2583 117.218 67.2583 118.288V118.302C67.2583 119.416 66.4453 119.987 64.8486 119.987H62.7393V116.596H65.1855ZM65.2222 121.122C66.9067 121.122 67.771 121.745 67.771 122.96V122.975C67.771 124.191 66.936 124.835 65.3467 124.835H62.7393V121.122H65.2222ZM73.2026 126.139C74.2646 126.139 75.0923 125.678 75.5903 124.835H75.7075V126H76.9819V120.595C76.9819 118.954 75.9053 117.965 73.979 117.965C72.2944 117.965 71.0932 118.8 70.8882 120.038L70.8808 120.082H72.1553L72.1626 120.06C72.3677 119.445 72.9902 119.093 73.935 119.093C75.1142 119.093 75.7075 119.621 75.7075 120.595V121.312L73.4443 121.452C71.6059 121.562 70.5659 122.375 70.5659 123.781V123.795C70.5659 125.231 71.7012 126.139 73.2026 126.139ZM71.8696 123.766V123.751C71.8696 122.968 72.397 122.543 73.5981 122.47L75.7075 122.338V123.056C75.7075 124.184 74.7627 125.033 73.4663 125.033C72.5508 125.033 71.8696 124.564 71.8696 123.766ZM79.2202 126H88.976V118.104H87.7016V124.945H84.7353V118.104H83.4609V124.945H80.4946V118.104H79.2202V126ZM95.247 128.637H96.5214V124.755H96.6386C97.0707 125.597 98.0155 126.139 99.0995 126.139C101.106 126.139 102.41 124.535 102.41 122.06V122.045C102.41 119.584 101.099 117.965 99.0995 117.965C98.0009 117.965 97.122 118.485 96.6386 119.364H96.5214V118.104H95.247V128.637ZM98.8066 125.011C97.371 125.011 96.4921 123.883 96.4921 122.06V122.045C96.4921 120.221 97.371 119.093 98.8066 119.093C100.249 119.093 101.106 120.207 101.106 122.045V122.06C101.106 123.898 100.249 125.011 98.8066 125.011ZM107.541 126.139C109.402 126.139 110.53 125.084 110.801 124.015L110.815 123.957H109.541L109.512 124.022C109.299 124.499 108.64 125.004 107.571 125.004C106.164 125.004 105.264 124.052 105.227 122.418H110.911V121.92C110.911 119.562 109.607 117.965 107.461 117.965C105.315 117.965 103.923 119.635 103.923 122.074V122.082C103.923 124.557 105.286 126.139 107.541 126.139ZM107.454 119.101C108.618 119.101 109.482 119.84 109.614 121.4H105.249C105.388 119.899 106.282 119.101 107.454 119.101ZM116.086 117.006C117.595 117.006 118.598 115.966 118.598 114.604H117.455C117.455 115.402 116.95 116.142 116.086 116.142C115.236 116.142 114.716 115.402 114.716 114.604H113.574C113.574 115.966 114.577 117.006 116.086 117.006ZM112.797 126H114.072L117.975 120.111H118.093V126H119.367V118.104H118.093L114.189 123.993H114.072V118.104H112.797V126ZM127.369 118.104H120.983V119.159H123.539V126H124.813V119.159H127.369V118.104ZM128.978 126H130.252L134.156 120.111H134.273V126H135.548V118.104H134.273L130.369 123.993H130.252V118.104H128.978V126ZM143.015 126H144.29V118.104H143.015V121.371H139.104V118.104H137.83V126H139.104V122.426H143.015V126ZM151.618 119.159V118.104H146.565V126H147.839V119.159H151.618Z" fill="white"/>
<rect x="161" y="107" width="90" height="28" rx="14" fill="#2B2B2B"/>
<path d="M174.179 126H178.017C179.797 126 180.881 125.084 180.881 123.722V123.708C180.881 122.741 180.185 122.008 179.13 121.891V121.767C179.943 121.627 180.522 120.888 180.522 120.053V120.038C180.522 118.808 179.577 117.995 177.966 117.995H174.179V126ZM175.981 121.32V119.254H177.534C178.339 119.254 178.728 119.665 178.728 120.272V120.287C178.728 120.954 178.288 121.32 177.387 121.32H175.981ZM175.981 124.74V122.543H177.519C178.515 122.543 179.013 122.902 179.013 123.627V123.642C179.013 124.33 178.566 124.74 177.688 124.74H175.981ZM182.68 126H186.085C187.953 126 189.147 124.916 189.147 123.217V123.202C189.147 121.503 187.953 120.412 186.085 120.412H184.503V117.995H182.68V126ZM190.458 126H192.282V117.995H190.458V126ZM185.851 121.818C186.737 121.818 187.309 122.367 187.309 123.195V123.209C187.309 124.03 186.745 124.594 185.851 124.594H184.503V121.818H185.851ZM197.86 126.161C199.889 126.161 201.068 125.07 201.332 123.429L201.346 123.371L199.625 123.378L199.61 123.407C199.383 124.25 198.805 124.682 197.86 124.682C196.622 124.682 195.882 123.686 195.882 121.986V121.972C195.882 120.294 196.615 119.313 197.86 119.313C198.856 119.313 199.449 119.87 199.618 120.646L199.625 120.668H201.346V120.639C201.141 118.983 199.911 117.841 197.853 117.841C195.443 117.841 194.029 119.386 194.029 121.972V121.986C194.029 124.601 195.45 126.161 197.86 126.161ZM206.426 126.161C208.821 126.161 210.279 124.594 210.279 122.001V121.986C210.279 119.408 208.814 117.841 206.426 117.841C204.046 117.841 202.574 119.416 202.574 121.986V122.001C202.574 124.594 204.024 126.161 206.426 126.161ZM206.426 124.682C205.159 124.682 204.434 123.693 204.434 122.008V121.994C204.434 120.309 205.159 119.313 206.426 119.313C207.686 119.313 208.411 120.309 208.411 121.994V122.008C208.411 123.693 207.693 124.682 206.426 124.682ZM214.253 122.543L216.919 126H219.123L215.74 121.701L218.97 117.995H216.875L214.238 121.21H213.843V117.995H212.019V126H213.843V122.543H214.253ZM220.519 126H222.321L225.69 120.609H225.844V126H227.646V117.995H225.844L222.468 123.356H222.321V117.995H220.519V126ZM233.349 116.903C234.96 116.903 236.037 115.856 236.037 114.406H234.601C234.586 115.189 234.118 115.841 233.349 115.841C232.579 115.841 232.103 115.189 232.089 114.406H230.661C230.661 115.856 231.73 116.903 233.349 116.903ZM229.782 126H231.583L234.953 120.609H235.106V126H236.908V117.995H235.106L231.73 123.356H231.583V117.995H229.782V126Z" fill="#C8F132"/>
<defs>
<linearGradient id="paint0_linear_79_2503" x1="-5.95763e-07" y1="89.5715" x2="310.919" y2="83.099" gradientUnits="userSpaceOnUse">
<stop stop-color="#DE132A"/>
<stop offset="0.432292" stop-color="#FF7A00"/>
<stop offset="0.739583" stop-color="#F3EC43"/>
<stop offset="1" stop-color="#42FF00"/>
</linearGradient>
</defs>
</svg>
