<svg width="48" height="47" viewBox="0 0 48 47" fill="none" xmlns="http://www.w3.org/2000/svg">
<path d="M0 23.2525C-4.55016e-08 26.306 0.601443 29.3297 1.76999 32.1508C2.93854 34.9719 4.6513 37.5353 6.81049 39.6945C8.96968 41.8536 11.533 43.5664 14.3541 44.735C17.1753 45.9035 20.1989 46.5049 23.2525 46.5049C26.306 46.5049 29.3297 45.9035 32.1508 44.735C34.9719 43.5664 37.5353 41.8536 39.6945 39.6945C41.8536 37.5353 43.5664 34.9719 44.735 32.1508C45.9035 29.3297 46.5049 26.306 46.5049 23.2525C46.5049 20.1989 45.9035 17.1753 44.735 14.3541C43.5664 11.533 41.8536 8.96968 39.6945 6.81049C37.5353 4.6513 34.9719 2.93854 32.1508 1.76999C29.3297 0.601443 26.306 0 23.2525 0C20.1989 0 17.1753 0.601443 14.3541 1.76999C11.533 2.93854 8.96968 4.6513 6.81049 6.81049C4.6513 8.96968 2.93854 11.533 1.76999 14.3541C0.601443 17.1753 -4.55016e-08 20.1989 0 23.2525Z" fill="#25A072"/>
<path d="M17.0871 38.8869C17.0871 39.168 18.3527 39.4375 20.6054 39.6363C22.8581 39.835 25.9135 39.9467 29.0993 39.9467C32.2852 39.9467 35.3405 39.835 37.5933 39.6363C39.846 39.4375 41.1115 39.168 41.1115 38.8869C41.1115 38.6059 39.846 38.3363 37.5933 38.1376C35.3405 37.9388 32.2852 37.8272 29.0993 37.8272C25.9135 37.8272 22.8581 37.9388 20.6054 38.1376C18.3527 38.3363 17.0871 38.6059 17.0871 38.8869Z" fill="#BDECC4"/>
<path d="M4.69939 7.53221L25.5147 4.31764L29.5679 30.5632L8.75256 33.7777L4.69939 7.53221Z" fill="#BDECC4"/>
<path d="M4.69939 7.53221L25.5147 4.31764L29.5679 30.5632L8.75256 33.7777L4.69939 7.53221Z" stroke="black" stroke-width="0.48" stroke-linecap="round" stroke-linejoin="round"/>
<path d="M7.83379 9.82779L23.2189 7.45182L26.4335 28.2672L11.0484 30.6431L7.83379 9.82779Z" fill="white"/>
<path d="M7.83379 9.82779L23.2189 7.45182L26.4335 28.2672L11.0484 30.6431L7.83379 9.82779Z" stroke="black" stroke-width="0.48" stroke-linecap="round" stroke-linejoin="round"/>
<path d="M13.8341 14.4751L14.0492 15.8714L10.9072 16.3568L10.4218 13.2142L12.1675 12.9445" stroke="black" stroke-width="0.48" stroke-linecap="round" stroke-linejoin="round"/>
<path d="M15.3642 12.8086L21.6488 11.8383" stroke="black" stroke-width="0.48" stroke-linecap="round" stroke-linejoin="round"/>
<path d="M15.6333 14.5542L19.8234 13.9072" stroke="black" stroke-width="0.48" stroke-linecap="round" stroke-linejoin="round"/>
<path d="M16.2808 18.7444L22.5654 17.7736" stroke="black" stroke-width="0.48" stroke-linecap="round" stroke-linejoin="round"/>
<path d="M16.5502 20.49L20.7403 19.843" stroke="black" stroke-width="0.48" stroke-linecap="round" stroke-linejoin="round"/>
<path d="M17.1436 24.3308L23.4281 23.36" stroke="black" stroke-width="0.48" stroke-linecap="round" stroke-linejoin="round"/>
<path d="M17.4132 26.0764L21.6027 25.4294" stroke="black" stroke-width="0.48" stroke-linecap="round" stroke-linejoin="round"/>
<path d="M11.6311 14.1004L12.4374 14.691L13.8598 12.3262" stroke="black" stroke-width="0.48" stroke-linecap="round" stroke-linejoin="round"/>
<path d="M14.6969 20.0615L14.9125 21.4578L11.77 21.9432L11.2846 18.8006L13.0302 18.5314" stroke="black" stroke-width="0.48" stroke-linecap="round" stroke-linejoin="round"/>
<path d="M12.4936 19.6868L13.2998 20.2774L14.7223 17.9126" stroke="black" stroke-width="0.48" stroke-linecap="round" stroke-linejoin="round"/>
<path d="M15.5596 25.6479L15.7753 27.0442L12.6327 27.5296L12.1473 24.387L13.893 24.1178" stroke="black" stroke-width="0.48" stroke-linecap="round" stroke-linejoin="round"/>
<path d="M13.3569 25.2732L14.1626 25.8638L15.5851 23.499" stroke="black" stroke-width="0.48" stroke-linecap="round" stroke-linejoin="round"/>
<path d="M17.5098 6.48033L17.4394 6.02749C17.3945 5.72957 17.2913 5.44345 17.1356 5.18552C16.9799 4.92759 16.7748 4.70293 16.5321 4.52443C16.2894 4.34593 16.0138 4.21709 15.7212 4.1453C15.4286 4.07351 15.1248 4.06018 14.827 4.10609C14.5292 4.15199 14.2435 4.25622 13.9861 4.4128C13.7287 4.56937 13.5047 4.77522 13.327 5.01853C13.1494 5.26184 13.0215 5.53783 12.9507 5.83068C12.8799 6.12352 12.8676 6.42746 12.9145 6.72506L12.9843 7.1779L10.2695 7.59703L10.6887 10.3123L20.6436 8.77768L20.2245 6.06237L17.5098 6.48033Z" fill="white"/>
<path d="M17.5098 6.48033L17.4394 6.02749C17.3945 5.72957 17.2913 5.44345 17.1356 5.18552C16.9799 4.92759 16.7748 4.70293 16.5321 4.52443C16.2894 4.34593 16.0138 4.21709 15.7212 4.1453C15.4286 4.07351 15.1248 4.06018 14.827 4.10609C14.5292 4.15199 14.2435 4.25622 13.9861 4.4128C13.7287 4.56937 13.5047 4.77522 13.327 5.01853C13.1494 5.26184 13.0215 5.53783 12.9507 5.83068C12.8799 6.12352 12.8676 6.42746 12.9145 6.72506L12.9843 7.1779L10.2695 7.59703L10.6887 10.3123L20.6436 8.77768L20.2245 6.06237L17.5098 6.48033Z" stroke="black" stroke-width="0.48" stroke-linecap="round" stroke-linejoin="round"/>
<path d="M17.9709 26.6986C17.9709 29.6969 19.162 32.5725 21.2821 34.6926C23.4023 36.8128 26.2778 38.0039 29.2762 38.0039C32.2746 38.0039 35.1501 36.8128 37.2703 34.6926C39.3905 32.5725 40.5816 29.6969 40.5816 26.6986C40.5816 23.7002 39.3905 20.8246 37.2703 18.7045C35.1501 16.5843 32.2746 15.3932 29.2762 15.3932C26.2778 15.3932 23.4023 16.5843 21.2821 18.7045C19.162 20.8246 17.9709 23.7002 17.9709 26.6986Z" fill="white" stroke="black" stroke-width="0.48" stroke-linecap="round" stroke-linejoin="round"/>
<path d="M29.2762 15.3932C27.0402 15.3932 24.8545 16.0563 22.9953 17.2985C21.1361 18.5407 19.6871 20.3064 18.8314 22.3722C17.9758 24.438 17.7519 26.7111 18.1881 28.9041C18.6243 31.0971 19.701 33.1116 21.2821 34.6926C22.8632 36.2737 24.8776 37.3505 27.0707 37.7867C29.2637 38.2229 31.5368 37.999 33.6026 37.1433C35.6684 36.2877 37.434 34.8386 38.6763 32.9795C39.9185 31.1203 40.5816 28.9345 40.5816 26.6986C40.5814 23.7002 39.3903 20.8248 37.2701 18.7046C35.15 16.5845 32.2745 15.3934 29.2762 15.3932ZM29.2762 35.531C27.5293 35.5311 25.8216 35.0132 24.369 34.0428C22.9164 33.0723 21.7843 31.6929 21.1157 30.079C20.4471 28.4651 20.2721 26.6892 20.6128 24.9758C20.9536 23.2624 21.7947 21.6886 23.0299 20.4533C24.2652 19.218 25.839 18.3767 27.5523 18.0359C29.2656 17.695 31.0416 17.8699 32.6555 18.5384C34.2695 19.2069 35.649 20.3389 36.6195 21.7914C37.5901 23.244 38.1081 24.9516 38.1081 26.6986C38.1081 29.041 37.1776 31.2874 35.5213 32.9438C33.865 34.6002 31.6186 35.5309 29.2762 35.531Z" fill="#BDECC4" stroke="black" stroke-width="0.48" stroke-linecap="round" stroke-linejoin="round"/>
<path d="M29.2762 19.9855C27.9485 19.9854 26.6505 20.379 25.5465 21.1166C24.4425 21.8542 23.582 22.9026 23.0738 24.1292C22.5656 25.3558 22.4326 26.7056 22.6915 28.0078C22.9505 29.3101 23.5898 30.5062 24.5286 31.4451C25.4674 32.384 26.6636 33.0234 27.9658 33.2825C29.268 33.5416 30.6178 33.4087 31.8444 32.9006C33.0711 32.3925 34.1196 31.5321 34.8572 30.4281C35.5949 29.3242 35.9886 28.0263 35.9886 26.6985C35.9886 24.9182 35.2814 23.2109 34.0226 21.9519C32.7638 20.693 31.0565 19.9857 29.2762 19.9855ZM29.2762 30.7979C28.4648 30.7981 27.6716 30.5576 26.9969 30.1068C26.3221 29.6561 25.7962 29.0154 25.4857 28.2658C25.1751 27.5162 25.0938 26.6913 25.2521 25.8955C25.4104 25.0996 25.8011 24.3686 26.3748 23.7949C26.9486 23.2211 27.6796 22.8304 28.4754 22.6721C29.2713 22.5138 30.0961 22.5951 30.8458 22.9057C31.5954 23.2163 32.2361 23.7422 32.6868 24.4169C33.1375 25.0916 33.3781 25.8848 33.3779 26.6962C33.3782 27.2351 33.2724 27.7687 33.0664 28.2666C32.8604 28.7645 32.5583 29.217 32.1774 29.5981C31.7965 29.9792 31.3442 30.2815 30.8464 30.4878C30.3486 30.6941 29.815 30.8003 29.2762 30.8003V30.7979Z" fill="#BDECC4" stroke="black" stroke-width="0.48" stroke-linecap="round" stroke-linejoin="round"/>
<path d="M27.1562 26.6985C27.1562 27.2608 27.3795 27.8 27.7771 28.1976C28.1747 28.5952 28.7139 28.8186 29.2762 28.8186C29.8385 28.8186 30.3777 28.5952 30.7753 28.1976C31.1729 27.8 31.3962 27.2608 31.3962 26.6985C31.3962 26.1363 31.1729 25.597 30.7753 25.1994C30.3777 24.8019 29.8385 24.5785 29.2762 24.5785C28.7139 24.5785 28.1747 24.8019 27.7771 25.1994C27.3795 25.597 27.1562 26.1363 27.1562 26.6985Z" fill="#BDECC4" stroke="black" stroke-width="0.48" stroke-linecap="round" stroke-linejoin="round"/>
<path d="M46.1756 11.0478L30.1721 27.0513C30.0901 27.1333 29.9927 27.1984 29.8855 27.2429C29.7783 27.2873 29.6635 27.3101 29.5474 27.3101C29.4314 27.3101 29.3166 27.2873 29.2094 27.2429C29.1022 27.1984 29.0048 27.1333 28.9228 27.0513C28.8407 26.9694 28.7756 26.872 28.7311 26.7649C28.6867 26.6578 28.6638 26.5429 28.6638 26.4269C28.6638 26.311 28.6867 26.1961 28.7311 26.089C28.7756 25.9818 28.8407 25.8845 28.9228 25.8026L44.9275 9.79852C45.0617 9.66448 45.2436 9.58919 45.4332 9.58919C45.6229 9.58919 45.8048 9.66448 45.939 9.79852L46.1767 10.0363C46.2432 10.1027 46.2959 10.1816 46.3318 10.2684C46.3677 10.3553 46.3861 10.4483 46.386 10.5423C46.3859 10.6362 46.3672 10.7292 46.3311 10.816C46.295 10.9027 46.2422 10.9815 46.1756 11.0478Z" fill="white" stroke="black" stroke-width="0.48" stroke-linecap="round" stroke-linejoin="round"/>
<path d="M40.4356 14.2891V11.5842C40.4356 11.4914 40.4538 11.3994 40.4893 11.3136C40.5248 11.2279 40.5769 11.1499 40.6426 11.0843L43.6485 8.08006C43.6959 8.03241 43.7559 7.99928 43.8215 7.98457C43.887 7.96986 43.9554 7.97418 44.0186 7.99701C44.0818 8.01985 44.1372 8.06026 44.1782 8.11348C44.2192 8.16671 44.2442 8.23054 44.2502 8.29747L44.4315 10.2943L40.4356 14.2891Z" fill="#BDECC4" stroke="black" stroke-width="0.48" stroke-linecap="round" stroke-linejoin="round"/>
<path d="M41.6848 15.5383H44.3897C44.4825 15.5384 44.5744 15.5201 44.6602 15.4846C44.746 15.4491 44.8239 15.397 44.8896 15.3314L47.8967 12.3236C47.9441 12.2761 47.9771 12.2161 47.9916 12.1505C48.0062 12.085 48.0017 12.0167 47.9789 11.9536C47.956 11.8904 47.9156 11.8351 47.8625 11.7941C47.8093 11.7531 47.7456 11.7281 47.6787 11.722L45.6831 11.5412L41.6848 15.5383Z" fill="#BDECC4" stroke="black" stroke-width="0.48" stroke-linecap="round" stroke-linejoin="round"/>
</svg>
