<svg width="210" height="149" viewBox="0 0 210 149" fill="none" xmlns="http://www.w3.org/2000/svg">
<path d="M209.5 141.077C209.819 140.627 209.712 140.003 209.261 139.684L201.914 134.486C201.463 134.167 200.839 134.274 200.52 134.725C200.201 135.176 200.308 135.8 200.759 136.119L207.29 140.739L202.67 147.27C202.351 147.721 202.458 148.345 202.909 148.664C203.36 148.983 203.984 148.876 204.303 148.425L209.5 141.077ZM31.0093 0.261889C-1.27552 29.7722 -9.75956 74.2409 16.6572 106.817C43.009 139.314 103.746 159.504 208.853 141.486L208.515 139.514C103.622 157.496 43.8589 137.186 18.2107 105.558C-7.37253 74.0091 0.643444 30.7278 32.3587 1.73811L31.0093 0.261889Z" fill="black"/>
</svg>
