<svg width="113" height="98" viewBox="0 0 113 98" fill="none" xmlns="http://www.w3.org/2000/svg">
<path d="M0.738757 89.8515C0.380619 90.272 0.431111 90.9031 0.851534 91.2612L7.70272 97.0974C8.12315 97.4556 8.75429 97.4051 9.11243 96.9847C9.47057 96.5642 9.42008 95.9331 8.99966 95.575L2.90971 90.3872L8.09744 84.2973C8.45558 83.8769 8.40509 83.2457 7.98466 82.8876C7.56424 82.5294 6.93309 82.5799 6.57495 83.0003L0.738757 89.8515ZM110.517 0.815204C105.033 29.9797 96.3437 50.5841 79.8504 64.6772C63.3409 78.7842 38.8481 86.509 1.42025 89.5032L1.57975 91.4968C39.1519 88.491 64.1591 80.7158 81.1496 66.1978C98.1563 51.6659 106.967 30.5203 112.483 1.1848L110.517 0.815204Z" fill="black"/>
</svg>
