<svg width="158" height="155" viewBox="0 0 158 155" fill="none" xmlns="http://www.w3.org/2000/svg">
<path d="M157.19 147.724C157.59 147.343 157.605 146.71 157.224 146.31L151.016 139.794C150.635 139.394 150.002 139.379 149.603 139.759C149.203 140.14 149.187 140.773 149.568 141.173L155.086 146.966L149.294 152.484C148.894 152.865 148.879 153.498 149.259 153.897C149.64 154.297 150.273 154.313 150.673 153.932L157.19 147.724ZM35.3598 0.731779C11.999 20.1991 1.24558 39.0545 0.111477 56.5133C-1.02391 73.9919 7.49771 89.7976 22.0756 103.113C51.1902 129.707 104.834 146.746 156.476 148L156.524 146C105.166 144.754 52.0598 127.793 23.4244 101.637C9.1273 88.5774 1.02391 73.3206 2.10727 56.6429C3.19192 39.9455 13.501 21.5509 36.6402 2.26822L35.3598 0.731779Z" fill="black"/>
</svg>
