<svg width="40" height="40" viewBox="0 0 40 40" fill="none" xmlns="http://www.w3.org/2000/svg">
<g clip-path="url(#clip0_82_2136)">
<path d="M35.5951 0.847412H4.40368C3.43203 0.847412 2.64453 1.63601 2.64453 2.60765V8.46016H37.3552V2.60765C37.3553 1.63593 36.5667 0.847412 35.5951 0.847412ZM11.575 4.36898C11.1099 4.36898 10.7325 3.99156 10.7325 3.52648C10.7325 3.0614 11.1099 2.68398 11.575 2.68398C12.0401 2.68398 12.4175 3.0614 12.4175 3.52648C12.4175 3.99156 12.04 4.36898 11.575 4.36898ZM28.6451 4.36898C28.18 4.36898 27.8026 3.99156 27.8026 3.52648C27.8026 3.0614 28.18 2.68398 28.6451 2.68398C29.1101 2.68398 29.4876 3.0614 29.4876 3.52648C29.4876 3.99156 29.1101 4.36898 28.6451 4.36898Z" fill="#E6E6E6"/>
<path d="M39.9614 8.86899L37.2991 22.7521L38.3865 37.1891C38.4663 38.2484 37.6282 39.1527 36.5644 39.1527H3.43438C2.37173 39.1527 1.53258 38.2484 1.61235 37.1891L2.70087 22.7521L0.0385958 8.86899C-0.211873 7.56367 0.788988 6.35156 2.11899 6.35156H37.88C39.2111 6.35156 40.2119 7.56367 39.9614 8.86899Z" fill="#25A072"/>
<path d="M36.5645 39.1528H3.43439C2.37173 39.1528 1.53259 38.2485 1.61235 37.1892L2.70087 22.7522H21.7974H37.2992L38.3866 37.1892C38.4663 38.2485 37.6283 39.1528 36.5645 39.1528Z" fill="#29B27F"/>
</g>
<path d="M17.854 28V25.943H13.876L15.321 24.362C16.834 22.713 17.48 21.795 17.48 20.35C17.48 18.242 15.729 17.069 13.825 17.069C12.703 17.069 11.462 17.392 10.527 18.038V20.248C11.326 19.653 12.397 19.228 13.366 19.228C14.369 19.228 15.151 19.636 15.151 20.622C15.151 21.54 14.59 22.203 13.468 23.461L10.187 27.15V28H17.854ZM24.1768 28.306C27.3388 28.306 29.1238 25.79 29.1238 22.696C29.1238 19.602 27.3388 17.069 24.1768 17.069C21.0148 17.069 19.2298 19.585 19.2298 22.679C19.2298 25.773 21.0148 28.306 24.1768 28.306ZM24.1768 26.181C22.3918 26.181 21.6608 24.617 21.6608 22.679C21.6608 20.741 22.3918 19.194 24.1768 19.194C25.9618 19.194 26.6928 20.758 26.6928 22.696C26.6928 24.634 25.9618 26.181 24.1768 26.181Z" fill="white"/>
<defs>
<clipPath id="clip0_82_2136">
<rect width="40" height="40" fill="white"/>
</clipPath>
</defs>
</svg>
