<svg width="48" height="48" viewBox="0 0 48 48" fill="none" xmlns="http://www.w3.org/2000/svg">
<g clip-path="url(#clip0_82_1541)">
<path d="M0 24C0 30.3652 2.52856 36.4697 7.02944 40.9706C11.5303 45.4714 17.6348 48 24 48C30.3652 48 36.4697 45.4714 40.9706 40.9706C45.4714 36.4697 48 30.3652 48 24C48 17.6348 45.4714 11.5303 40.9706 7.02944C36.4697 2.52856 30.3652 0 24 0C17.6348 0 11.5303 2.52856 7.02944 7.02944C2.52856 11.5303 0 17.6348 0 24Z" fill="#434343"/>
<path d="M14.7983 43.4722C14.7983 43.7741 15.7783 44.0636 17.5227 44.277C19.2671 44.4905 21.6331 44.6104 24.1001 44.6104C26.5671 44.6104 28.933 44.4905 30.6774 44.277C32.4219 44.0636 33.4019 43.7741 33.4019 43.4722C33.4019 43.1703 32.4219 42.8808 30.6774 42.6674C28.933 42.4539 26.5671 42.334 24.1001 42.334C21.6331 42.334 19.2671 42.4539 17.5227 42.6674C15.7783 42.8808 14.7983 43.1703 14.7983 43.4722Z" fill="#29B27F"/>
<path d="M41.4684 25.3549C41.4346 25.6902 41.3351 26.0156 41.1756 26.3125C41.0161 26.6093 40.7997 26.8719 40.5387 27.0851C40.2778 27.2983 39.9774 27.4581 39.6547 27.5552C39.332 27.6523 38.9933 27.6849 38.658 27.6511L16.1856 25.3873C15.8502 25.3537 15.5248 25.2544 15.2278 25.0949C14.9309 24.9354 14.6683 24.719 14.455 24.458C14.2418 24.197 14.0821 23.8965 13.985 23.5738C13.8879 23.251 13.8554 22.9123 13.8894 22.5769L15.2268 9.30014C15.2951 8.62287 15.6296 8.00045 16.1567 7.56975C16.6839 7.13905 17.3605 6.93531 18.0378 7.00334L40.5102 9.26654C41.1873 9.33518 41.8094 9.66979 42.24 10.1969C42.6705 10.7239 42.8742 11.4004 42.8064 12.0775L41.4684 25.3549Z" fill="white"/>
<path d="M14.8665 12.8723L15.1752 9.80803L42.755 12.5866L42.4463 15.6509L14.8665 12.8723Z" fill="#29B27F"/>
<path d="M17.0045 22.3755L24.6659 23.1459" stroke="#212121" stroke-width="0.48" stroke-linecap="round" stroke-linejoin="round"/>
<path d="M38.8302 20.8148C38.8126 20.9884 38.727 21.148 38.5921 21.2586C38.4571 21.3693 38.2839 21.422 38.1102 21.4052L17.9706 19.3766C17.7969 19.3592 17.6372 19.2736 17.5264 19.1387C17.4156 19.0037 17.3629 18.8304 17.3796 18.6566L17.5596 16.9052C17.5772 16.7316 17.6628 16.5721 17.7977 16.4614C17.9327 16.3508 18.1059 16.2981 18.2796 16.3148L38.4162 18.344C38.5898 18.3616 38.7494 18.4472 38.86 18.5822C38.9706 18.7171 39.0234 18.8903 39.0066 19.064L38.8302 20.8148Z" fill="#29B27F"/>
<path d="M41.4684 25.3549C41.4346 25.6902 41.3351 26.0156 41.1756 26.3125C41.0161 26.6093 40.7997 26.8719 40.5387 27.0851C40.2778 27.2983 39.9774 27.4581 39.6547 27.5552C39.332 27.6523 38.9933 27.6849 38.658 27.6511L16.1856 25.3873C15.8502 25.3537 15.5248 25.2544 15.2278 25.0949C14.9309 24.9354 14.6683 24.719 14.455 24.458C14.2418 24.197 14.0821 23.8965 13.985 23.5738C13.8879 23.251 13.8554 22.9123 13.8894 22.5769L15.2268 9.30014C15.2951 8.62287 15.6296 8.00045 16.1567 7.56975C16.6839 7.13905 17.3605 6.93531 18.0378 7.00334L40.5102 9.26654C41.1873 9.33518 41.8094 9.66979 42.24 10.1969C42.6705 10.7239 42.8742 11.4004 42.8064 12.0775L41.4684 25.3549Z" stroke="#212121" stroke-width="0.48" stroke-linecap="round" stroke-linejoin="round"/>
<path d="M14.8665 12.8723L15.1752 9.80803L42.755 12.5866L42.4463 15.6509L14.8665 12.8723Z" stroke="#212121" stroke-width="0.48" stroke-linecap="round" stroke-linejoin="round"/>
<path d="M38.8302 20.8148C38.8126 20.9884 38.727 21.148 38.5921 21.2586C38.4571 21.3693 38.2839 21.422 38.1102 21.4052L17.9706 19.3766C17.7969 19.3592 17.6372 19.2736 17.5264 19.1387C17.4156 19.0037 17.3629 18.8304 17.3796 18.6566L17.5596 16.9052C17.5772 16.7316 17.6628 16.5721 17.7977 16.4614C17.9327 16.3508 18.1059 16.2981 18.2796 16.3148L38.4162 18.344C38.5898 18.3616 38.7494 18.4472 38.86 18.5822C38.9706 18.7171 39.0234 18.8903 39.0066 19.064L38.8302 20.8148Z" stroke="#212121" stroke-width="0.48" stroke-linecap="round" stroke-linejoin="round"/>
<path d="M5.97431 18.4086L27.7739 17.3302C28.5546 17.2916 29.3186 17.5647 29.8979 18.0894C30.4773 18.6142 30.8245 19.3475 30.8631 20.1282L31.4505 32.0021C31.4887 32.7826 31.2155 33.5464 30.6908 34.1254C30.1661 34.7045 29.4329 35.0515 28.6524 35.0901L6.85346 36.1685C6.4669 36.1876 6.08036 36.1304 5.71591 36.0001C5.35146 35.8699 5.01623 35.6691 4.72937 35.4093C4.44251 35.1495 4.20963 34.8357 4.04404 34.4859C3.87844 34.1361 3.78337 33.757 3.76424 33.3705L3.1769 21.4972C3.15778 21.1107 3.21497 20.7243 3.34521 20.3599C3.47544 19.9955 3.67617 19.6603 3.93594 19.3735C4.1957 19.0867 4.50941 18.8539 4.85916 18.6884C5.2089 18.5228 5.58783 18.4277 5.97431 18.4086Z" fill="#29B27F"/>
<path d="M7.35947 31.9549L12.5837 31.6963" stroke="#212121" stroke-width="0.48" stroke-linecap="round" stroke-linejoin="round"/>
<path d="M6.99814 24.6418L12.222 24.3834L12.4028 28.0402L7.17903 28.2986L6.99814 24.6418Z" fill="white" stroke="#212121" stroke-width="0.48" stroke-linecap="round" stroke-linejoin="round"/>
<path d="M5.97431 18.4086L27.7739 17.3302C28.5545 17.2916 29.3186 17.5647 29.8979 18.0894C30.4773 18.6142 30.8245 19.3475 30.8631 20.1282L31.4505 32.0021C31.4887 32.7826 31.2155 33.5464 30.6908 34.1254C30.1661 34.7045 29.4329 35.0515 28.6524 35.0901L6.85346 36.1685C6.4669 36.1876 6.08036 36.1304 5.71591 36.0001C5.35146 35.8699 5.01623 35.6691 4.72937 35.4093C4.44251 35.1495 4.20963 34.8357 4.04404 34.4859C3.87844 34.1361 3.78337 33.757 3.76424 33.3705L3.1769 21.4972C3.15778 21.1107 3.21497 20.7243 3.34521 20.3599C3.47544 19.9955 3.67617 19.6603 3.93594 19.3735C4.1957 19.0867 4.50941 18.8539 4.85916 18.6884C5.2089 18.5228 5.58783 18.4277 5.97431 18.4086V18.4086Z" stroke="#212121" stroke-width="0.48" stroke-linecap="round" stroke-linejoin="round"/>
<path d="M18.7709 29.6646C18.7709 30.4969 19.1015 31.295 19.69 31.8835C20.2785 32.472 21.0767 32.8026 21.9089 32.8026C22.7412 32.8026 23.5393 32.472 24.1278 31.8835C24.7163 31.295 25.0469 30.4969 25.0469 29.6646C25.0469 28.8324 24.7163 28.0342 24.1278 27.4457C23.5393 26.8572 22.7412 26.5266 21.9089 26.5266C21.0767 26.5266 20.2785 26.8572 19.69 27.4457C19.1015 28.0342 18.7709 28.8324 18.7709 29.6646Z" fill="white"/>
<path d="M22.4274 29.4839C22.4274 30.3162 22.758 31.1144 23.3465 31.7028C23.935 32.2913 24.7331 32.6219 25.5654 32.6219C26.3976 32.6219 27.1958 32.2913 27.7843 31.7028C28.3728 31.1144 28.7034 30.3162 28.7034 29.4839C28.7034 28.6517 28.3728 27.8535 27.7843 27.265C27.1958 26.6766 26.3976 26.3459 25.5654 26.3459C24.7331 26.3459 23.935 26.6766 23.3465 27.265C22.758 27.8535 22.4274 28.6517 22.4274 29.4839Z" fill="white"/>
<path d="M22.4316 29.6402C22.4557 30.1377 22.5982 30.6223 22.8472 31.0537C23.0962 31.485 23.4445 31.8508 23.8632 32.1206C24.253 31.8105 24.5633 31.4121 24.7685 30.9584C24.9738 30.5046 25.068 30.0084 25.0433 29.511C25.0187 29.0136 24.876 28.5292 24.6269 28.0979C24.3779 27.6666 24.0297 27.3008 23.6112 27.0308C23.2213 27.3406 22.9109 27.739 22.7058 28.1928C22.5006 28.6466 22.4067 29.1428 22.4316 29.6402Z" fill="#29B27F"/>
<path d="M18.7709 29.6646C18.7709 30.4969 19.1015 31.295 19.69 31.8835C20.2785 32.472 21.0767 32.8026 21.9089 32.8026C22.7412 32.8026 23.5393 32.472 24.1278 31.8835C24.7163 31.295 25.0469 30.4969 25.0469 29.6646C25.0469 28.8324 24.7163 28.0342 24.1278 27.4457C23.5393 26.8572 22.7412 26.5266 21.9089 26.5266C21.0767 26.5266 20.2785 26.8572 19.69 27.4457C19.1015 28.0342 18.7709 28.8324 18.7709 29.6646V29.6646Z" stroke="#212121" stroke-width="0.48" stroke-linecap="round" stroke-linejoin="round"/>
<path d="M22.4274 29.4839C22.4274 30.3162 22.758 31.1144 23.3465 31.7028C23.935 32.2913 24.7331 32.6219 25.5654 32.6219C26.3976 32.6219 27.1958 32.2913 27.7843 31.7028C28.3728 31.1144 28.7034 30.3162 28.7034 29.4839C28.7034 28.6517 28.3728 27.8535 27.7843 27.265C27.1958 26.6766 26.3976 26.3459 25.5654 26.3459C24.7331 26.3459 23.935 26.6766 23.3465 27.265C22.758 27.8535 22.4274 28.6517 22.4274 29.4839V29.4839Z" stroke="#212121" stroke-width="0.48" stroke-linecap="round" stroke-linejoin="round"/>
</g>
<defs>
<clipPath id="clip0_82_1541">
<rect width="48" height="48" fill="white"/>
</clipPath>
</defs>
</svg>
