<svg width="24" height="24" viewBox="0 0 24 24" fill="none" xmlns="http://www.w3.org/2000/svg">
<g clip-path="url(#clip0_82_2147)">
<path d="M12 2C10.0222 2 8.08879 2.58649 6.4443 3.6853C4.79981 4.78412 3.51809 6.3459 2.76121 8.17317C2.00433 10.0004 1.8063 12.0111 2.19215 13.9509C2.578 15.8907 3.53041 17.6725 4.92894 19.0711C6.32746 20.4696 8.10929 21.422 10.0491 21.8079C11.9889 22.1937 13.9996 21.9957 15.8268 21.2388C17.6541 20.4819 19.2159 19.2002 20.3147 17.5557C21.4135 15.9112 22 13.9778 22 12C22 10.6868 21.7413 9.38642 21.2388 8.17317C20.7363 6.95991 19.9997 5.85752 19.0711 4.92893C18.1425 4.00035 17.0401 3.26375 15.8268 2.7612C14.6136 2.25866 13.3132 2 12 2ZM13 16C13 16.2652 12.8946 16.5196 12.7071 16.7071C12.5196 16.8946 12.2652 17 12 17C11.7348 17 11.4804 16.8946 11.2929 16.7071C11.1054 16.5196 11 16.2652 11 16V11C11 10.7348 11.1054 10.4804 11.2929 10.2929C11.4804 10.1054 11.7348 10 12 10C12.2652 10 12.5196 10.1054 12.7071 10.2929C12.8946 10.4804 13 10.7348 13 11V16ZM12 9C11.8022 9 11.6089 8.94135 11.4444 8.83147C11.28 8.72159 11.1518 8.56541 11.0761 8.38268C11.0004 8.19996 10.9806 7.99889 11.0192 7.80491C11.0578 7.61093 11.153 7.43275 11.2929 7.29289C11.4328 7.15304 11.6109 7.0578 11.8049 7.01921C11.9989 6.98063 12.2 7.00043 12.3827 7.07612C12.5654 7.15181 12.7216 7.27998 12.8315 7.44443C12.9414 7.60888 13 7.80222 13 8C13 8.26522 12.8946 8.51957 12.7071 8.70711C12.5196 8.89464 12.2652 9 12 9Z" fill="black"/>
<path fill-rule="evenodd" clip-rule="evenodd" d="M19.26 18.877C20.9453 17.0985 21.984 14.7011 21.9998 12.0613C21.9878 14.0177 21.4022 15.9282 20.3147 17.5557C19.9996 18.0272 19.6465 18.4689 19.26 18.877ZM18.8994 19.2387C18.0117 20.0847 16.9714 20.7647 15.8268 21.2388C14.6295 21.7347 13.3535 21.9907 12.0702 21.9998C14.7176 21.9815 17.1206 20.9346 18.8994 19.2387ZM11.9229 21.9997C11.2966 21.9949 10.6692 21.9312 10.0491 21.8079C8.17259 21.4346 6.44391 20.5312 5.06705 19.2066C6.84756 20.9199 9.26151 21.9796 11.9229 21.9997ZM4.95017 19.0922C4.94308 19.0852 4.93601 19.0781 4.92894 19.0711C3.53041 17.6725 2.578 15.8907 2.19215 13.9509C2.06441 13.3087 2.00067 12.6588 2.00001 12.0103C1.99867 10.6999 2.2549 9.3955 2.76121 8.17317C3.25469 6.98179 3.97129 5.90327 4.86607 4.99235C3.0934 6.79676 2 9.27069 2 12C2 12.0034 2 12.0069 2.00001 12.0103C2.00279 14.7784 3.1303 17.2832 4.95017 19.0922ZM4.99284 4.8656C5.43663 4.42971 5.92218 4.03417 6.4443 3.6853C8.08879 2.58649 10.0222 2 12 2C13.3132 2 14.6136 2.25866 15.8268 2.7612C17.0097 3.25117 18.0872 3.9636 19.001 4.85953C17.1971 3.09071 14.7259 2 12 2C9.27094 2 6.79721 3.09321 4.99284 4.8656ZM19.1373 4.99583C20.0347 5.9103 20.7483 6.98892 21.2388 8.17317C21.7343 9.36947 21.9927 10.6505 21.9999 11.945C21.9853 9.2392 20.8961 6.7878 19.1373 4.99583ZM12.7071 16.7071C12.8946 16.5196 13 16.2652 13 16V11C13 10.7348 12.8946 10.4804 12.7071 10.2929C12.5196 10.1054 12.2652 10 12 10C11.7348 10 11.4804 10.1054 11.2929 10.2929C11.1054 10.4804 11 10.7348 11 11V16C11 16.2652 11.1054 16.5196 11.2929 16.7071C11.4804 16.8946 11.7348 17 12 17C12.2652 17 12.5196 16.8946 12.7071 16.7071ZM11.4444 8.83147C11.6089 8.94135 11.8022 9 12 9C12.2652 9 12.5196 8.89464 12.7071 8.70711C12.8946 8.51957 13 8.26522 13 8C13 7.80222 12.9414 7.60888 12.8315 7.44443C12.7216 7.27998 12.5654 7.15181 12.3827 7.07612C12.2 7.00043 11.9989 6.98063 11.8049 7.01921C11.6109 7.0578 11.4328 7.15304 11.2929 7.29289C11.153 7.43275 11.0578 7.61093 11.0192 7.80491C10.9806 7.99889 11.0004 8.19996 11.0761 8.38268C11.1518 8.56541 11.28 8.72159 11.4444 8.83147Z" fill="white"/>
</g>
<defs>
<clipPath id="clip0_82_2147">
<rect width="24" height="24" fill="white"/>
</clipPath>
</defs>
</svg>
