<svg width="49" height="48" viewBox="0 0 49 48" fill="none" xmlns="http://www.w3.org/2000/svg">
<path d="M2.89043 24.6734C2.89043 30.788 5.31941 36.652 9.64302 40.9756C13.9666 45.2992 19.8307 47.7282 25.9452 47.7282C32.0597 47.7282 37.9238 45.2992 42.2474 40.9756C46.571 36.652 49 30.788 49 24.6734C49 18.5589 46.571 12.6949 42.2474 8.37124C37.9238 4.04763 32.0597 1.61865 25.9452 1.61865C19.8307 1.61865 13.9666 4.04763 9.64302 8.37124C5.31941 12.6949 2.89043 18.5589 2.89043 24.6734Z" fill="#434343"/>
<path d="M27.6963 4.7202L29.6508 4.07063C29.6863 4.05778 29.7171 4.03428 29.7388 4.00334C29.7605 3.9724 29.7722 3.93552 29.7722 3.89772C29.7722 3.85992 29.7605 3.82303 29.7388 3.79209C29.7171 3.76115 29.6863 3.73766 29.6508 3.7248L28.0445 3.18936C27.9366 3.15366 27.8386 3.09344 27.758 3.01343C27.6773 2.93343 27.6164 2.83581 27.5799 2.72826L27.0445 1.1225C27.0319 1.08669 27.0085 1.05567 26.9775 1.03373C26.9465 1.01178 26.9095 1 26.8715 1C26.8336 1 26.7966 1.01178 26.7656 1.03373C26.7346 1.05567 26.7112 1.08669 26.6986 1.1225L26.1632 2.72826C26.1272 2.83553 26.0668 2.93299 25.9868 3.01299C25.9068 3.09299 25.8094 3.15336 25.7021 3.18936L24.0946 3.7248C24.059 3.73766 24.0283 3.76115 24.0066 3.79209C23.9849 3.82303 23.9732 3.85992 23.9732 3.89772C23.9732 3.93552 23.9849 3.9724 24.0066 4.00334C24.0283 4.03428 24.059 4.05778 24.0946 4.07063L25.7021 4.60665C25.8092 4.64284 25.9066 4.70328 25.9866 4.78325C26.0666 4.86323 26.127 4.96059 26.1632 5.06775L26.6986 6.67524C26.7112 6.71105 26.7346 6.74207 26.7656 6.76401C26.7966 6.78595 26.8336 6.79774 26.8715 6.79774C26.9095 6.79774 26.9465 6.78595 26.9775 6.76401C27.0085 6.74207 27.0319 6.71105 27.0445 6.67524L27.6963 4.7202Z" fill="white" stroke="#212121" stroke-width="0.48" stroke-linecap="round" stroke-linejoin="round"/>
<path d="M6.98446 14.0418L8.93893 13.39C8.97448 13.3771 9.0052 13.3536 9.02692 13.3227C9.04863 13.2917 9.06028 13.2549 9.06028 13.2171C9.06028 13.1793 9.04863 13.1424 9.02692 13.1114C9.0052 13.0805 8.97448 13.057 8.93893 13.0441L7.33258 12.5087C7.22477 12.473 7.1267 12.4128 7.04609 12.3328C6.96548 12.2528 6.90453 12.1551 6.86803 12.0476L6.33258 10.4418C6.31999 10.406 6.2966 10.375 6.26562 10.3531C6.23465 10.3311 6.19763 10.3193 6.15967 10.3193C6.12171 10.3193 6.08469 10.3311 6.05372 10.3531C6.02275 10.375 5.99935 10.406 5.98676 10.4418L5.45131 12.0476C5.41503 12.1552 5.35422 12.2528 5.27369 12.3329C5.19317 12.4129 5.09513 12.4731 4.98733 12.5087L3.37984 13.0441C3.34429 13.057 3.31357 13.0805 3.29185 13.1114C3.27013 13.1424 3.25848 13.1793 3.25848 13.2171C3.25848 13.2549 3.27013 13.2917 3.29185 13.3227C3.31357 13.3536 3.34429 13.3771 3.37984 13.39L4.98733 13.926C5.09533 13.9621 5.19346 14.0228 5.27398 14.1033C5.3545 14.1838 5.41521 14.282 5.45131 14.39L5.98676 15.9975C5.99935 16.0333 6.02275 16.0643 6.05372 16.0862C6.08469 16.1082 6.12171 16.12 6.15967 16.12C6.19763 16.12 6.23465 16.1082 6.26562 16.0862C6.2966 16.0643 6.31999 16.0333 6.33258 15.9975L6.98446 14.0418Z" fill="white" stroke="#212121" stroke-width="0.48" stroke-linecap="round" stroke-linejoin="round"/>
<path d="M41.5136 25.0504C41.5141 28.1859 40.5849 31.2512 38.8433 33.8586C37.1016 36.466 34.6259 38.4984 31.7292 39.6987C28.8325 40.899 25.6449 41.2134 22.5695 40.602C19.4941 39.9907 16.6691 38.481 14.4517 36.2641C12.2344 34.0471 10.7242 31.2224 10.1123 28.1471C9.50037 25.0718 9.81414 21.8841 11.0139 18.9872C12.2137 16.0903 14.2457 13.6142 16.8527 11.8721C19.4598 10.13 22.525 9.2002 25.6605 9.2002C27.7422 9.19982 29.8036 9.60951 31.727 10.4059C33.6504 11.2023 35.398 12.3697 36.8701 13.8416C38.3423 15.3134 39.51 17.0609 40.3068 18.9841C41.1035 20.9073 41.5136 22.9686 41.5136 25.0504Z" fill="#29B27F"/>
<path d="M41.5136 25.0504C41.5141 28.1859 40.5849 31.2512 38.8433 33.8586C37.1016 36.466 34.6259 38.4984 31.7292 39.6987C28.8325 40.899 25.6449 41.2134 22.5695 40.602C19.4941 39.9907 16.6691 38.481 14.4517 36.2641C12.2344 34.0471 10.7242 31.2224 10.1123 28.1471C9.50037 25.0718 9.81414 21.8841 11.0139 18.9872C12.2137 16.0903 14.2457 13.6142 16.8527 11.8721C19.4598 10.13 22.525 9.2002 25.6605 9.2002C27.7422 9.19982 29.8036 9.60951 31.727 10.4059C33.6504 11.2023 35.398 12.3697 36.8701 13.8416C38.3423 15.3134 39.51 17.0609 40.3068 18.9841C41.1035 20.9073 41.5136 22.9686 41.5136 25.0504V25.0504Z" stroke="#212121" stroke-width="0.48" stroke-linecap="round" stroke-linejoin="round"/>
<path d="M1 23.2893H8.04554V30.3348H1V23.2893Z" fill="white"/>
<path d="M8.04554 25.0501H1V24.023C1 23.9266 1.019 23.8312 1.05591 23.7421C1.09282 23.6531 1.14691 23.5721 1.21511 23.504C1.2833 23.4359 1.36425 23.3818 1.45334 23.345C1.54242 23.3082 1.63789 23.2892 1.7343 23.2893H7.31183C7.4082 23.2892 7.50364 23.3082 7.5927 23.345C7.68175 23.3818 7.76267 23.4359 7.83081 23.504C7.89896 23.5722 7.953 23.6531 7.98985 23.7422C8.02669 23.8312 8.04562 23.9267 8.04554 24.023V25.0501Z" fill="#29B27F"/>
<path d="M5.40347 23.2893H1.7343C1.63789 23.2892 1.54242 23.3082 1.45334 23.345C1.36425 23.3818 1.2833 23.4359 1.21511 23.504C1.14691 23.5721 1.09282 23.6531 1.05591 23.7421C1.019 23.8312 1 23.9266 1 24.023V25.0501H3.63977L5.40347 23.2893Z" fill="white"/>
<path d="M2.76143 28.5737H3.64212" stroke="#212121" stroke-width="0.48" stroke-linecap="round" stroke-linejoin="round"/>
<path d="M5.40395 28.5737H6.28464" stroke="#212121" stroke-width="0.48" stroke-linecap="round" stroke-linejoin="round"/>
<path d="M2.76143 26.8125H3.64212" stroke="#212121" stroke-width="0.48" stroke-linecap="round" stroke-linejoin="round"/>
<path d="M5.40395 26.8125H6.28464" stroke="#212121" stroke-width="0.48" stroke-linecap="round" stroke-linejoin="round"/>
<path d="M1 25.0513H8.04554" stroke="#212121" stroke-width="0.48" stroke-linecap="round" stroke-linejoin="round"/>
<path d="M1 23.2893H8.04554V30.3349H1V23.2893Z" stroke="#212121" stroke-width="0.48" stroke-linecap="round" stroke-linejoin="round"/>
<path d="M43.4219 31.2174H39.755V18.8831H43.4248C43.6194 18.8834 43.8059 18.9608 43.9435 19.0985C44.081 19.2362 44.1583 19.4228 44.1585 19.6174V30.4819C44.1587 30.5786 44.1397 30.6744 44.1027 30.7638C44.0657 30.8532 44.0115 30.9344 43.943 31.0027C43.8746 31.071 43.7933 31.1252 43.7039 31.162C43.6144 31.1989 43.5186 31.2177 43.4219 31.2174Z" fill="white"/>
<path d="M46.0634 29.4542H44.1556V20.6467H46.0634C46.2581 20.6467 46.4449 20.7241 46.5826 20.8618C46.7203 20.9995 46.7977 21.1863 46.7977 21.381V28.7205C46.7977 28.8169 46.7787 28.9124 46.7418 29.0014C46.7049 29.0905 46.6508 29.1714 46.5826 29.2395C46.5144 29.3077 46.4334 29.3617 46.3444 29.3985C46.2553 29.4354 46.1598 29.4543 46.0634 29.4542Z" fill="#29B27F"/>
<path d="M43.2749 16.2437C43.2749 16.0102 43.1821 15.7861 43.017 15.621C42.8518 15.4558 42.6278 15.363 42.3942 15.363C42.1607 15.363 41.9366 15.4558 41.7715 15.621C41.6063 15.7861 41.5135 16.0102 41.5135 16.2437V18.8835H43.2749V16.2437Z" fill="white"/>
<path d="M41.5135 33.8579C41.5135 34.0915 41.6063 34.3155 41.7715 34.4806C41.9366 34.6458 42.1607 34.7386 42.3942 34.7386C42.6278 34.7386 42.8518 34.6458 43.017 34.4806C43.1821 34.3155 43.2749 34.0915 43.2749 33.8579V31.2175H41.5135V33.8579Z" fill="white"/>
<path d="M43.4219 31.2174H39.755V18.8831H43.4248C43.6194 18.8834 43.8059 18.9608 43.9435 19.0985C44.081 19.2362 44.1583 19.4228 44.1585 19.6174V30.4819C44.1587 30.5786 44.1397 30.6744 44.1027 30.7638C44.0657 30.8532 44.0115 30.9344 43.943 31.0027C43.8746 31.071 43.7933 31.1252 43.7039 31.162C43.6144 31.1989 43.5186 31.2177 43.4219 31.2174Z" stroke="#212121" stroke-width="0.48" stroke-linecap="round" stroke-linejoin="round"/>
<path d="M46.0634 29.4542H44.1556V20.6467H46.0634C46.2581 20.6467 46.4449 20.7241 46.5826 20.8618C46.7203 20.9995 46.7977 21.1863 46.7977 21.381V28.7205C46.7977 28.8169 46.7787 28.9124 46.7418 29.0014C46.7049 29.0905 46.6508 29.1714 46.5826 29.2395C46.5144 29.3077 46.4334 29.3617 46.3444 29.3985C46.2553 29.4354 46.1598 29.4543 46.0634 29.4542V29.4542Z" stroke="#212121" stroke-width="0.48" stroke-linecap="round" stroke-linejoin="round"/>
<path d="M43.2749 16.2437C43.2749 16.0102 43.1821 15.7861 43.017 15.621C42.8518 15.4558 42.6278 15.363 42.3942 15.363C42.1607 15.363 41.9366 15.4558 41.7715 15.621C41.6063 15.7861 41.5135 16.0102 41.5135 16.2437V18.8835H43.2749V16.2437Z" stroke="#212121" stroke-width="0.48" stroke-linecap="round" stroke-linejoin="round"/>
<path d="M41.5135 33.8579C41.5135 34.0915 41.6063 34.3155 41.7715 34.4806C41.9366 34.6458 42.1607 34.7386 42.3942 34.7386C42.6278 34.7386 42.8518 34.6458 43.017 34.4806C43.1821 34.3155 43.2749 34.0915 43.2749 33.8579V31.2175H41.5135V33.8579Z" stroke="#212121" stroke-width="0.48" stroke-linecap="round" stroke-linejoin="round"/>
<path d="M40.7804 40.904H37.698C37.3087 40.904 36.9353 40.7493 36.6599 40.474C36.3846 40.1987 36.23 39.8253 36.23 39.436V10.6653C36.2307 10.2765 36.3857 9.90383 36.661 9.62915C36.9362 9.35446 37.3091 9.20019 37.698 9.2002H40.7804C40.9751 9.20035 41.1618 9.27776 41.2995 9.41543C41.4372 9.55311 41.5146 9.73979 41.5147 9.93449V40.1703C41.5146 40.3649 41.4371 40.5515 41.2994 40.6891C41.1618 40.8267 40.9751 40.904 40.7804 40.904Z" fill="white"/>
<path d="M40.7804 40.904H37.698C37.3087 40.904 36.9353 40.7493 36.6599 40.474C36.3846 40.1987 36.23 39.8253 36.23 39.436V10.6653C36.2307 10.2765 36.3857 9.90383 36.661 9.62915C36.9362 9.35446 37.3091 9.20019 37.698 9.2002H40.7804C40.9751 9.20035 41.1618 9.27776 41.2995 9.41543C41.4372 9.55311 41.5146 9.73979 41.5147 9.93449V40.1703C41.5146 40.3649 41.4371 40.5515 41.2994 40.6891C41.1618 40.8267 40.9751 40.904 40.7804 40.904V40.904Z" stroke="#212121" stroke-width="0.48" stroke-linecap="round" stroke-linejoin="round"/>
<path d="M19.0553 29.4543H14.6518C14.3014 29.4543 13.9654 29.5935 13.7177 29.8413C13.4699 30.089 13.3308 30.425 13.3308 30.7754C13.3308 31.1257 13.4699 31.4618 13.7177 31.7095C13.9654 31.9572 14.3014 32.0964 14.6518 32.0964H19.0553C19.4056 32.0964 19.7416 31.9572 19.9894 31.7095C20.2371 31.4618 20.3763 31.1257 20.3763 30.7754C20.3763 30.425 20.2371 30.089 19.9894 29.8413C19.7416 29.5935 19.4056 29.4543 19.0553 29.4543Z" fill="white" stroke="#212121" stroke-width="0.48" stroke-linecap="round" stroke-linejoin="round"/>
<path d="M14.6519 24.1704H10.2484C10.1123 24.1722 9.9773 24.1953 9.84839 24.239C9.83455 24.5099 9.80746 24.7768 9.80746 25.0511C9.80746 25.1998 9.82533 25.3433 9.82937 25.4915C9.84089 25.918 9.85761 26.3433 9.90257 26.7595C10.0151 26.7918 10.1313 26.8091 10.2484 26.8108H14.6519C15.0022 26.8108 15.3382 26.6716 15.586 26.4239C15.8337 26.1761 15.9729 25.8401 15.9729 25.4897C15.9729 25.1394 15.8337 24.8034 15.586 24.5556C15.3382 24.3079 15.0022 24.1687 14.6519 24.1687V24.1704Z" fill="white" stroke="#212121" stroke-width="0.48" stroke-linecap="round" stroke-linejoin="round"/>
<path d="M12.0098 29.4543H10.4404C10.5701 29.9039 10.7217 30.3431 10.89 30.7754C11.0629 31.2273 11.26 31.6665 11.4744 32.0964H12.0098C12.3602 32.0964 12.6962 31.9572 12.944 31.7095C13.1917 31.4618 13.3309 31.1257 13.3309 30.7754C13.3309 30.425 13.1917 30.089 12.944 29.8413C12.6962 29.5935 12.3602 29.4543 12.0098 29.4543Z" fill="white" stroke="#212121" stroke-width="0.48" stroke-linecap="round" stroke-linejoin="round"/>
<path d="M33.1471 37.3813H28.7465C28.3961 37.3813 28.0601 37.5205 27.8124 37.7683C27.5646 38.016 27.4254 38.352 27.4254 38.7024C27.4254 39.0527 27.5646 39.3888 27.8124 39.6365C28.0601 39.8842 28.3961 40.0234 28.7465 40.0234H30.8364C31.8311 39.6797 32.7888 39.2372 33.6952 38.7024C33.9298 38.5635 34.1672 38.4275 34.3955 38.277C34.3073 38.0159 34.1394 37.789 33.9154 37.6283C33.6915 37.4676 33.4227 37.3812 33.1471 37.3813Z" fill="white" stroke="#212121" stroke-width="0.48" stroke-linecap="round" stroke-linejoin="round"/>
<path d="M15.5326 32.0964H11.4743C11.7003 32.5502 11.9464 32.9906 12.2127 33.4175C12.4978 33.874 12.8038 34.3143 13.1308 34.7385H15.5326C15.8829 34.7385 16.2189 34.5993 16.4667 34.3516C16.7144 34.1039 16.8536 33.7678 16.8536 33.4175C16.8536 33.0671 16.7144 32.7311 16.4667 32.4834C16.2189 32.2356 15.8829 32.0964 15.5326 32.0964Z" fill="white" stroke="#212121" stroke-width="0.48" stroke-linecap="round" stroke-linejoin="round"/>
<path d="M22.5793 32.0964H18.1758C17.8255 32.0964 17.4895 32.2356 17.2417 32.4834C16.994 32.7311 16.8548 33.0671 16.8548 33.4175C16.8548 33.7678 16.994 34.1039 17.2417 34.3516C17.4895 34.5993 17.8255 34.7385 18.1758 34.7385H22.5793C22.9297 34.7385 23.2657 34.5993 23.5134 34.3516C23.7612 34.1039 23.9003 33.7678 23.9003 33.4175C23.9003 33.0671 23.7612 32.7311 23.5134 32.4834C23.2657 32.2356 22.9297 32.0964 22.5793 32.0964Z" fill="white" stroke="#212121" stroke-width="0.48" stroke-linecap="round" stroke-linejoin="round"/>
<path d="M34.0283 34.7388H29.6243C29.2786 34.746 28.9496 34.8884 28.7077 35.1354C28.4658 35.3824 28.3303 35.7144 28.3303 36.0601C28.3303 36.4058 28.4658 36.7378 28.7077 36.9848C28.9496 37.2318 29.2786 37.3742 29.6243 37.3814H34.0283C34.374 37.3742 34.7031 37.2318 34.945 36.9848C35.1869 36.7378 35.3224 36.4058 35.3224 36.0601C35.3224 35.7144 35.1869 35.3824 34.945 35.1354C34.7031 34.8884 34.374 34.746 34.0283 34.7388Z" fill="white" stroke="#212121" stroke-width="0.48" stroke-linecap="round" stroke-linejoin="round"/>
<path d="M34.9089 29.4543H30.5054C30.1551 29.4543 29.8191 29.5935 29.5713 29.8413C29.3236 30.089 29.1844 30.425 29.1844 30.7754C29.1844 31.1257 29.3236 31.4618 29.5713 31.7095C29.8191 31.9572 30.1551 32.0964 30.5054 32.0964H34.9089C35.2593 32.0964 35.5953 31.9572 35.843 31.7095C36.0908 31.4618 36.2299 31.1257 36.2299 30.7754C36.2299 30.425 36.0908 30.089 35.843 29.8413C35.5953 29.5935 35.2593 29.4543 34.9089 29.4543Z" fill="white" stroke="#212121" stroke-width="0.48" stroke-linecap="round" stroke-linejoin="round"/>
<path d="M19.0554 37.3814H15.7061C16.9534 38.3749 18.3382 39.1823 19.8173 39.7785C20.0466 39.6171 20.2185 39.3868 20.308 39.121C20.3975 38.8552 20.4 38.5678 20.3151 38.3006C20.2301 38.0333 20.0622 37.8001 19.8356 37.6348C19.6091 37.4695 19.3358 37.3807 19.0554 37.3814Z" fill="white" stroke="#212121" stroke-width="0.48" stroke-linecap="round" stroke-linejoin="round"/>
<path d="M26.1014 37.3813H21.698C21.3476 37.3813 21.0116 37.5205 20.7639 37.7683C20.5161 38.016 20.3769 38.352 20.3769 38.7024C20.3769 39.0527 20.5161 39.3888 20.7639 39.6365C21.0116 39.8842 21.3476 40.0234 21.698 40.0234H26.1014C26.4518 40.0234 26.7878 39.8842 27.0356 39.6365C27.2833 39.3888 27.4225 39.0527 27.4225 38.7024C27.4225 38.352 27.2833 38.016 27.0356 37.7683C26.7878 37.5205 26.4518 37.3813 26.1014 37.3813Z" fill="white" stroke="#212121" stroke-width="0.48" stroke-linecap="round" stroke-linejoin="round"/>
<path d="M15.5326 26.8125H11.1291C10.9036 26.813 10.6821 26.8713 10.4855 26.9817C10.2889 27.0922 10.124 27.2512 10.0064 27.4436C10.0415 27.6742 10.0675 27.9047 10.1118 28.1353C10.185 28.5041 10.2819 28.8632 10.3799 29.2223C10.5999 29.3748 10.8614 29.4565 11.1291 29.4563H15.5326C15.883 29.4563 16.219 29.3171 16.4667 29.0694C16.7145 28.8216 16.8536 28.4856 16.8536 28.1353C16.8536 27.7849 16.7145 27.4489 16.4667 27.2012C16.219 26.9534 15.883 26.8142 15.5326 26.8142V26.8125Z" fill="white" stroke="#212121" stroke-width="0.48" stroke-linecap="round" stroke-linejoin="round"/>
<path d="M17.2945 34.7388H13.1308C13.8833 35.717 14.7476 36.6039 15.706 37.3814H17.2945C17.6402 37.3742 17.9693 37.2318 18.2112 36.9848C18.4531 36.7378 18.5885 36.4058 18.5885 36.0601C18.5885 35.7144 18.4531 35.3824 18.2112 35.1354C17.9693 34.8884 17.6402 34.746 17.2945 34.7388Z" fill="white" stroke="#212121" stroke-width="0.48" stroke-linecap="round" stroke-linejoin="round"/>
<path d="M24.3401 34.7388H19.936C19.5904 34.746 19.2613 34.8884 19.0194 35.1354C18.7775 35.3824 18.642 35.7144 18.642 36.0601C18.642 36.4058 18.7775 36.7378 19.0194 36.9848C19.2613 37.2318 19.5904 37.3742 19.936 37.3814H24.3401C24.6857 37.3742 25.0148 37.2318 25.2567 36.9848C25.4986 36.7378 25.6341 36.4058 25.6341 36.0601C25.6341 35.7144 25.4986 35.3824 25.2567 35.1354C25.0148 34.8884 24.6857 34.746 24.3401 34.7388Z" fill="white" stroke="#212121" stroke-width="0.48" stroke-linecap="round" stroke-linejoin="round"/>
<path d="M36.23 26.8125H34.0283C33.6779 26.8125 33.3419 26.9517 33.0942 27.1994C32.8464 27.4472 32.7073 27.7832 32.7073 28.1335C32.7073 28.4839 32.8464 28.8199 33.0942 29.0677C33.3419 29.3154 33.6779 29.4546 34.0283 29.4546H36.23V26.8125Z" fill="white" stroke="#212121" stroke-width="0.48" stroke-linecap="round" stroke-linejoin="round"/>
<path d="M36.23 32.0964H32.2663C31.9159 32.0964 31.5799 32.2356 31.3322 32.4834C31.0844 32.7311 30.9452 33.0671 30.9452 33.4175C30.9452 33.7678 31.0844 34.1039 31.3322 34.3516C31.5799 34.5993 31.9159 34.7385 32.2663 34.7385H36.23V32.0964Z" fill="white" stroke="#212121" stroke-width="0.48" stroke-linecap="round" stroke-linejoin="round"/>
<path d="M21.7054 22.9181C21.7673 22.65 21.9033 22.4047 22.0978 22.2102C22.2924 22.0156 22.5376 21.8797 22.8057 21.8178L25.0138 21.3083C25.0543 21.299 25.0904 21.2763 25.1163 21.2439C25.1421 21.2114 25.1562 21.1711 25.1562 21.1296C25.1562 21.0881 25.1421 21.0478 25.1163 21.0154C25.0904 20.9829 25.0543 20.9602 25.0138 20.9509L22.8057 20.4397C22.5376 20.3778 22.2924 20.2419 22.0978 20.0473C21.9033 19.8528 21.7673 19.6075 21.7054 19.3394L21.1959 17.1336C21.1867 17.0932 21.164 17.0571 21.1315 17.0312C21.099 17.0053 21.0588 16.9912 21.0173 16.9912C20.9757 16.9912 20.9355 17.0053 20.903 17.0312C20.8705 17.0571 20.8478 17.0932 20.8386 17.1336L20.3314 19.3406C20.2691 19.6087 20.1327 19.854 19.9378 20.0483C19.7428 20.2427 19.4971 20.3783 19.2288 20.4397L17.0219 20.9492C16.9814 20.9585 16.9453 20.9812 16.9194 21.0136C16.8935 21.0461 16.8794 21.0864 16.8794 21.1279C16.8794 21.1694 16.8935 21.2097 16.9194 21.2421C16.9453 21.2746 16.9814 21.2973 17.0219 21.3066L19.2288 21.8161C19.4975 21.8777 19.7434 22.0137 19.9384 22.2086C20.1334 22.4035 20.2696 22.6494 20.3314 22.9181L20.8409 25.1262C20.8501 25.1666 20.8729 25.2028 20.9053 25.2286C20.9378 25.2545 20.978 25.2686 21.0196 25.2686C21.0611 25.2686 21.1013 25.2545 21.1338 25.2286C21.1663 25.2028 21.189 25.1666 21.1982 25.1262L21.7054 22.9181Z" fill="white" stroke="#212121" stroke-width="0.48" stroke-linecap="round" stroke-linejoin="round"/>
<path d="M31.7338 18.6187L33.6883 17.9674C33.7238 17.9546 33.7545 17.9311 33.7763 17.9002C33.798 17.8692 33.8096 17.8323 33.8096 17.7945C33.8096 17.7567 33.798 17.7198 33.7763 17.6889C33.7545 17.658 33.7238 17.6345 33.6883 17.6216L32.0819 17.0862C31.9741 17.0504 31.8761 16.9902 31.7955 16.9102C31.7149 16.8302 31.6539 16.7326 31.6174 16.6251L31.0819 15.0187C31.0693 14.9829 31.0459 14.9519 31.015 14.93C30.984 14.908 30.947 14.8962 30.909 14.8962C30.8711 14.8962 30.834 14.908 30.8031 14.93C30.7721 14.9519 30.7487 14.9829 30.7361 15.0187L30.2007 16.6245C30.165 16.7324 30.1048 16.8305 30.0248 16.9111C29.9448 16.9917 29.8472 17.0526 29.7396 17.0891L28.1321 17.6245C28.0963 17.6371 28.0652 17.6605 28.0433 17.6915C28.0214 17.7224 28.0096 17.7595 28.0096 17.7974C28.0096 17.8354 28.0214 17.8724 28.0433 17.9034C28.0652 17.9343 28.0963 17.9577 28.1321 17.9703L29.7396 18.5058C29.8471 18.5423 29.9447 18.6032 30.0247 18.6838C30.1047 18.7644 30.165 18.8625 30.2007 18.9703L30.7361 20.5772C30.7487 20.6131 30.7721 20.6441 30.8031 20.666C30.834 20.688 30.8711 20.6997 30.909 20.6997C30.947 20.6997 30.984 20.688 31.015 20.666C31.0459 20.6441 31.0693 20.6131 31.0819 20.5772L31.7338 18.6187Z" fill="white" stroke="#212121" stroke-width="0.48" stroke-linecap="round" stroke-linejoin="round"/>
</svg>
