<svg width="100" height="100" viewBox="0 0 100 100" fill="none" xmlns="http://www.w3.org/2000/svg">
<path d="M49.9999 99.113C72.0913 99.113 89.9999 81.2044 89.9999 59.113C89.9999 37.0216 72.0913 19.113 49.9999 19.113C27.9085 19.113 9.99987 37.0216 9.99987 59.113C9.99987 81.2044 27.9085 99.113 49.9999 99.113Z" fill="#434343"/>
<path d="M67.0999 91.811C67.0999 92.917 59.6789 93.811 50.5249 93.811C41.3709 93.811 33.0999 92.917 33.0999 91.811C33.0999 90.705 41.3709 89.811 50.5249 89.811C59.6789 89.811 67.0999 90.707 67.0999 91.811Z" fill="#29B27F"/>
<path d="M22.9519 67.9002L51.9769 88.9002C52.1546 89.029 52.3681 89.0994 52.5876 89.1014C52.8071 89.1035 53.0218 89.0371 53.2019 88.9115C53.382 88.786 53.5185 88.6075 53.5925 88.4008C53.6666 88.1941 53.6744 87.9695 53.6149 87.7582L43.9519 53.2582L22.9519 67.9002Z" fill="white"/>
<path d="M40.4458 66.6111C37.8682 69.5832 34.7812 72.0718 31.3298 73.9601L33.7598 75.7171C34.4198 75.3301 35.0798 74.9171 35.7378 74.4571C38.209 72.7104 40.4685 70.6821 42.4708 68.4131C44.0175 66.6764 45.4101 64.8083 46.6328 62.8301L45.5958 59.1301C44.2073 61.8344 42.4764 64.3488 40.4458 66.6111Z" fill="#29B27F" stroke="black" stroke-width="0.8" stroke-linecap="round" stroke-linejoin="round"/>
<path d="M44.8751 72.963C42.8888 75.2136 40.6255 77.2034 38.1391 78.885L40.4781 80.577C42.8274 78.8835 44.9813 76.9342 46.9001 74.765C47.7201 73.845 48.4741 72.898 49.1861 71.94L48.2411 68.566C47.228 70.112 46.103 71.5816 44.8751 72.963Z" fill="#29B27F" stroke="black" stroke-width="0.8" stroke-linecap="round" stroke-linejoin="round"/>
<path d="M49.4791 80.4571C48.2717 81.8186 46.9684 83.0919 45.5791 84.2671L47.8261 85.8931C49.1253 84.7599 50.3523 83.5465 51.5001 82.2601C51.6471 82.0941 51.7891 81.9271 51.9321 81.7601L51.0391 78.5691C50.5411 79.2201 50.0181 79.8521 49.4791 80.4571Z" fill="#29B27F" stroke="black" stroke-width="0.8" stroke-linecap="round" stroke-linejoin="round"/>
<path d="M22.9519 67.9002L51.9769 88.9002C52.1546 89.029 52.3681 89.0994 52.5876 89.1014C52.8071 89.1035 53.0218 89.0371 53.2019 88.9115C53.382 88.786 53.5185 88.6075 53.5925 88.4008C53.6666 88.1941 53.6744 87.9695 53.6149 87.7582L43.9519 53.2582L22.9519 67.9002Z" stroke="black" stroke-width="0.8" stroke-linecap="round" stroke-linejoin="round"/>
<path d="M36.9436 65.57C42.7403 61.5264 45.8738 56.0038 43.9424 53.2349C42.0109 50.4661 35.7459 51.4995 29.9491 55.5431C24.1524 59.5867 21.0189 65.1093 22.9504 67.8781C24.8818 70.647 31.1468 69.6136 36.9436 65.57Z" fill="#29B27F"/>
<path d="M36.9436 65.57C42.7403 61.5264 45.8738 56.0038 43.9424 53.2349C42.0109 50.4661 35.7459 51.4995 29.9491 55.5431C24.1524 59.5867 21.0189 65.1093 22.9504 67.8781C24.8818 70.647 31.1468 69.6136 36.9436 65.57Z" stroke="black" stroke-width="0.8" stroke-linecap="round" stroke-linejoin="round"/>
<path d="M57.1079 38.4L53.8599 74.077C53.8397 74.2956 53.8881 74.5151 53.9984 74.705C54.1087 74.8948 54.2753 75.0456 54.4752 75.1364C54.6751 75.2273 54.8983 75.2536 55.1138 75.2118C55.3293 75.1699 55.5265 75.062 55.6779 74.903L80.4149 48.992L57.1079 38.4Z" fill="#29B27F"/>
<path d="M67.142 52.7901C63.2707 52.0897 59.5552 50.7047 56.17 48.7001L55.9 51.6861C56.57 52.0561 57.263 52.4121 57.993 52.7441C60.7557 53.9785 63.653 54.8867 66.626 55.4501C68.9087 55.8948 71.2258 56.1397 73.551 56.1821L76.206 53.4001C73.171 53.5869 70.1246 53.3819 67.142 52.7901Z" fill="white" stroke="black" stroke-width="0.8" stroke-linecap="round" stroke-linejoin="round"/>
<path d="M63.9391 59.8391C60.99 59.28 58.1237 58.3489 55.4091 57.0681L55.1471 59.9431C57.802 61.0989 60.577 61.9565 63.4211 62.5001C64.6311 62.7351 65.8311 62.9001 67.0211 63.0251L69.4401 60.4911C67.593 60.4085 65.7544 60.1906 63.9391 59.8391Z" fill="white" stroke="black" stroke-width="0.8" stroke-linecap="round" stroke-linejoin="round"/>
<path d="M59.8419 67.6231C58.0553 67.2791 56.2955 66.8083 54.5759 66.2141L54.3239 68.9761C55.9615 69.5166 57.6314 69.9534 59.3239 70.284C59.5419 70.327 59.7569 70.3631 59.9739 70.4021L62.2619 68.0021C61.4479 67.9051 60.6379 67.7781 59.8419 67.6231Z" fill="white" stroke="black" stroke-width="0.8" stroke-linecap="round" stroke-linejoin="round"/>
<path d="M57.1079 38.4L53.8599 74.077C53.8397 74.2956 53.8881 74.5151 53.9984 74.705C54.1087 74.8948 54.2753 75.0456 54.4752 75.1364C54.6751 75.2273 54.8983 75.2536 55.1138 75.2118C55.3293 75.1699 55.5265 75.062 55.6779 74.903L80.4149 48.992L57.1079 38.4Z" stroke="black" stroke-width="0.8" stroke-linecap="round" stroke-linejoin="round"/>
<path d="M80.4148 48.9918C81.8117 45.9177 77.7267 41.0548 71.2908 38.1303C64.8548 35.2058 58.505 35.3271 57.1081 38.4013C55.7112 41.4755 59.7962 46.3384 66.2322 49.2629C72.6681 52.1873 79.0179 52.066 80.4148 48.9918Z" fill="white"/>
<path d="M80.4148 48.9918C81.8117 45.9177 77.7267 41.0548 71.2908 38.1303C64.8548 35.2058 58.505 35.3271 57.1081 38.4013C55.7112 41.4755 59.7962 46.3384 66.2322 49.2629C72.6681 52.1873 79.0179 52.066 80.4148 48.9918Z" stroke="black" stroke-width="0.8" stroke-linecap="round" stroke-linejoin="round"/>
<path d="M87.2279 24.8441C87.3254 25.0159 87.3698 25.2128 87.3556 25.4098C87.3413 25.6068 87.2691 25.7952 87.1479 25.9511C86.5096 26.8017 85.7027 27.5115 84.7777 28.0361C83.8527 28.5607 82.8295 28.8889 81.7719 29.0001C81.576 29.0238 81.3774 28.9889 81.2012 28.9C81.0251 28.811 80.8792 28.6719 80.7819 28.5001L79.5489 26.3251C79.4711 26.188 79.4268 26.0343 79.4196 25.8768C79.4125 25.7192 79.4427 25.5622 79.5079 25.4186C79.573 25.2749 79.6712 25.1488 79.7944 25.0503C79.9177 24.9519 80.0624 24.884 80.2169 24.8521C81.8259 24.5348 83.289 23.7055 84.3879 22.4881C84.4943 22.3708 84.6271 22.2804 84.7753 22.2245C84.9234 22.1685 85.0828 22.1485 85.2402 22.1662C85.3976 22.1839 85.5486 22.2387 85.6807 22.3261C85.8127 22.4136 85.9222 22.5311 85.9999 22.6691L87.2279 24.8441Z" fill="#29B27F" stroke="black" stroke-width="0.8" stroke-linecap="round" stroke-linejoin="round"/>
<path d="M42.4999 24.844C42.5974 25.0158 42.6418 25.2126 42.6276 25.4096C42.6133 25.6066 42.5411 25.795 42.4199 25.951C41.7821 26.8011 40.9758 27.5106 40.0516 28.0352C39.1273 28.5598 38.1048 28.8882 37.0479 29C36.8518 29.0239 36.653 28.9891 36.4767 28.9001C36.3003 28.8111 36.1542 28.6719 36.0569 28.5L34.8239 26.325C34.7461 26.1878 34.7018 26.0341 34.6947 25.8764C34.6877 25.7188 34.718 25.5618 34.7832 25.4181C34.8485 25.2745 34.9468 25.1483 35.0701 25.0499C35.1935 24.9515 35.3383 24.8837 35.4929 24.852C37.1019 24.5347 38.565 23.7054 39.6639 22.488C39.7704 22.3717 39.903 22.2823 40.0507 22.227C40.1984 22.1717 40.357 22.1522 40.5137 22.1699C40.6704 22.1877 40.8207 22.2422 40.9523 22.3291C41.0839 22.416 41.1931 22.5328 41.2709 22.67L42.4999 24.844Z" fill="#29B27F" stroke="black" stroke-width="0.8" stroke-linecap="round" stroke-linejoin="round"/>
<path d="M66.5149 42.2191C66.3218 42.2606 66.1208 42.2439 65.9371 42.1713C65.7535 42.0987 65.5954 41.9734 65.4829 41.8111C64.8625 40.9476 64.4269 39.9655 64.2032 38.9261C63.9795 37.8866 63.9726 36.8123 64.1829 35.7701C64.218 35.5751 64.3103 35.3951 64.4479 35.2526C64.5855 35.1102 64.7623 35.0119 64.9559 34.9701L67.4009 34.4451C67.5547 34.4129 67.7139 34.4173 67.8656 34.4581C68.0173 34.499 68.1572 34.5749 68.2741 34.6799C68.391 34.7849 68.4815 34.916 68.5383 35.0624C68.595 35.2089 68.6165 35.3667 68.6009 35.5231C68.4219 37.1534 68.7752 38.798 69.6079 40.2111C69.687 40.3475 69.7327 40.5008 69.7412 40.6583C69.7497 40.8158 69.7209 40.9731 69.657 41.1173C69.5931 41.2616 69.496 41.3886 69.3737 41.4882C69.2513 41.5877 69.1071 41.6569 68.9529 41.6901L66.5149 42.2191Z" fill="#29B27F" stroke="black" stroke-width="0.8" stroke-linecap="round" stroke-linejoin="round"/>
<path d="M23.011 16.338C22.818 16.3796 22.617 16.3632 22.4334 16.2907C22.2497 16.2183 22.0916 16.0931 21.979 15.931C21.3586 15.0673 20.923 14.0851 20.6993 13.0455C20.4757 12.0059 20.4687 10.9314 20.679 9.889C20.7141 9.69409 20.8064 9.51401 20.944 9.37159C21.0816 9.22917 21.2584 9.13081 21.452 9.089L23.9 8.568C24.0539 8.53577 24.2131 8.54026 24.3649 8.58112C24.5167 8.62198 24.6568 8.69804 24.7737 8.80315C24.8906 8.90826 24.981 9.03944 25.0377 9.18606C25.0944 9.33267 25.1158 9.49059 25.1 9.647C24.9212 11.2771 25.2745 12.9212 26.107 14.334C26.1861 14.4706 26.2317 14.6239 26.2402 14.7815C26.2487 14.939 26.2197 15.0964 26.1558 15.2406C26.0918 15.3849 25.9946 15.5119 25.8721 15.6114C25.7496 15.7109 25.6053 15.78 25.451 15.813L23.011 16.338Z" fill="#29B27F" stroke="black" stroke-width="0.8" stroke-linecap="round" stroke-linejoin="round"/>
<path d="M15.5311 21.2461C15.3732 21.1275 15.1837 21.0584 14.9865 21.0473C14.7893 21.0363 14.5933 21.0839 14.4231 21.1841C13.4982 21.709 12.6915 22.4189 12.0533 23.2696C11.4152 24.1202 10.9593 25.0933 10.7141 26.1281C10.6656 26.3195 10.6749 26.521 10.7407 26.7071C10.8066 26.8933 10.9261 27.0558 11.0841 27.1741L13.0841 28.6741C13.2102 28.7688 13.3568 28.8323 13.5122 28.8595C13.6675 28.8867 13.827 28.8768 13.9777 28.8306C14.1285 28.7843 14.2661 28.7031 14.3795 28.5936C14.4929 28.484 14.5788 28.3492 14.6301 28.2001C15.1502 26.6449 16.1595 25.2996 17.5071 24.3651C17.6362 24.2743 17.7419 24.1542 17.8156 24.0146C17.8894 23.8751 17.929 23.72 17.9314 23.5622C17.9337 23.4044 17.8987 23.2483 17.8291 23.1066C17.7595 22.9649 17.6574 22.8418 17.5311 22.7471L15.5311 21.2461Z" fill="#29B27F" stroke="black" stroke-width="0.8" stroke-linecap="round" stroke-linejoin="round"/>
<path d="M31.6 53.1211C31.7551 52.9989 31.9429 52.9253 32.1397 52.9097C32.3365 52.894 32.5336 52.937 32.706 53.0331C33.6428 53.5361 34.4658 54.2268 35.1235 55.0622C35.7813 55.8975 36.2598 56.8595 36.529 57.8881C36.5821 58.0784 36.5777 58.2801 36.5163 58.4679C36.4549 58.6557 36.3393 58.821 36.184 58.9431L34.223 60.4901C34.0991 60.5878 33.9538 60.6547 33.7991 60.6855C33.6444 60.7163 33.4845 60.71 33.3327 60.6672C33.1809 60.6244 33.0413 60.5462 32.9254 60.4392C32.8096 60.3321 32.7207 60.1991 32.666 60.0511C32.1097 58.5083 31.0692 57.1869 29.7 56.2841C29.569 56.1963 29.4607 56.0788 29.3838 55.9411C29.3069 55.8034 29.2637 55.6495 29.2577 55.4919C29.2516 55.3343 29.2829 55.1776 29.349 55.0344C29.4151 54.8912 29.5141 54.7657 29.638 54.6681L31.6 53.1211Z" fill="#29B27F" stroke="black" stroke-width="0.8" stroke-linecap="round" stroke-linejoin="round"/>
<path d="M59.7142 16.7281C59.5522 16.8411 59.4274 16.9995 59.3553 17.1833C59.2832 17.3671 59.2672 17.5682 59.3092 17.7611C59.5186 18.8034 59.9405 19.7914 60.5487 20.6634C61.1569 21.5354 61.9384 22.2726 62.8442 22.8291C63.0108 22.9354 63.2051 22.9899 63.4027 22.9858C63.6002 22.9817 63.7921 22.9192 63.9542 22.8061L66.0002 21.3751C66.1296 21.285 66.2358 21.1655 66.3103 21.0264C66.3847 20.8874 66.4251 20.7327 66.4283 20.575C66.4316 20.4173 66.3974 20.2611 66.3288 20.1192C66.2601 19.9772 66.1588 19.8535 66.0332 19.7581C64.7186 18.7777 63.7564 17.3984 63.2902 15.8261C63.2443 15.6752 63.1633 15.5372 63.0538 15.4235C62.9444 15.3099 62.8096 15.2237 62.6605 15.1721C62.5113 15.1205 62.3521 15.105 62.1958 15.1267C62.0395 15.1484 61.8906 15.2068 61.7612 15.2971L59.7142 16.7281Z" fill="#29B27F" stroke="black" stroke-width="0.8" stroke-linecap="round" stroke-linejoin="round"/>
<path d="M49.245 13.3811C49.2635 13.5778 49.2233 13.7756 49.1295 13.9494C49.0357 14.1233 48.8925 14.2655 48.718 14.3581C47.7871 14.8719 46.7602 15.1883 45.7015 15.2874C44.6429 15.3865 43.5751 15.2662 42.565 14.9341C42.3762 14.8757 42.2089 14.7626 42.0844 14.6092C41.9598 14.4558 41.8834 14.2689 41.865 14.0721L41.632 11.5831C41.6173 11.426 41.64 11.2677 41.6982 11.1211C41.7564 10.9745 41.8484 10.8437 41.9668 10.7395C42.0852 10.6352 42.2265 10.5605 42.3794 10.5213C42.5322 10.4821 42.6921 10.4797 42.846 10.5141C44.4437 10.8832 46.1179 10.726 47.619 10.0661C47.7639 10.0037 47.9215 9.97651 48.079 9.98671C48.2364 9.99692 48.3892 10.0443 48.5249 10.1248C48.6605 10.2054 48.7752 10.3169 48.8595 10.4502C48.9438 10.5836 48.9954 10.735 49.01 10.8921L49.245 13.3811Z" fill="#29B27F" stroke="black" stroke-width="0.8" stroke-linecap="round" stroke-linejoin="round"/>
<path d="M74.6901 12.8671C74.5405 12.7387 74.4321 12.5688 74.3788 12.379C74.3254 12.1891 74.3293 11.9877 74.3901 11.8001C74.6993 10.7833 75.2148 9.84111 75.9044 9.03245C76.594 8.22378 77.4429 7.56597 78.3981 7.10007C78.5739 7.01094 78.772 6.97573 78.9677 6.99885C79.1635 7.02198 79.348 7.10242 79.4981 7.23007L81.3981 8.85107C81.5182 8.95334 81.6125 9.08259 81.6731 9.22825C81.7337 9.3739 81.759 9.53184 81.7469 9.68915C81.7348 9.84645 81.6857 9.99867 81.6035 10.1334C81.5213 10.2681 81.4085 10.3814 81.2741 10.4641C79.8715 11.3139 78.781 12.5942 78.1651 14.1141C78.1048 14.2599 78.0109 14.3895 77.891 14.492C77.7711 14.5946 77.6286 14.6674 77.4752 14.7043C77.3217 14.7413 77.1618 14.7414 77.0083 14.7047C76.8548 14.668 76.7122 14.5955 76.5921 14.4931L74.6901 12.8671Z" fill="#29B27F" stroke="black" stroke-width="0.8" stroke-linecap="round" stroke-linejoin="round"/>
<path d="M23.2349 42.176C23.0853 42.0476 22.9769 41.8777 22.9235 41.6879C22.8702 41.498 22.8741 41.2966 22.9349 41.109C23.244 40.0923 23.7594 39.1503 24.4488 38.3416C25.1382 37.533 25.9869 36.8751 26.9419 36.409C27.1177 36.3199 27.3158 36.2847 27.5115 36.3078C27.7072 36.3309 27.8918 36.4114 28.0419 36.539L29.9419 38.16C30.0621 38.2622 30.1564 38.3914 30.2171 38.537C30.2778 38.6826 30.3032 38.8405 30.2912 38.9979C30.2792 39.1552 30.2301 39.3074 30.1481 39.4421C30.066 39.5768 29.9532 39.6902 29.8189 39.773C28.4159 40.6224 27.3253 41.9028 26.7099 43.423C26.6496 43.5689 26.5557 43.6984 26.4358 43.801C26.3159 43.9035 26.1734 43.9763 26.02 44.0133C25.8665 44.0502 25.7065 44.0504 25.5531 44.0136C25.3996 43.9769 25.257 43.9044 25.1369 43.802L23.2349 42.176Z" fill="#29B27F" stroke="black" stroke-width="0.8" stroke-linecap="round" stroke-linejoin="round"/>
<path d="M9.44395 35.5151V34.5531" stroke="black" stroke-width="0.8" stroke-linecap="round" stroke-linejoin="round"/>
<path d="M11.4838 36.3602L12.1638 35.6802" stroke="black" stroke-width="0.8" stroke-linecap="round" stroke-linejoin="round"/>
<path d="M12.3291 38.4011H13.2911" stroke="black" stroke-width="0.8" stroke-linecap="round" stroke-linejoin="round"/>
<path d="M11.4838 40.442L12.1638 41.122" stroke="black" stroke-width="0.8" stroke-linecap="round" stroke-linejoin="round"/>
<path d="M9.44395 41.287V42.2491" stroke="black" stroke-width="0.8" stroke-linecap="round" stroke-linejoin="round"/>
<path d="M7.40311 40.442L6.72311 41.122" stroke="black" stroke-width="0.8" stroke-linecap="round" stroke-linejoin="round"/>
<path d="M6.5581 38.4011H5.5961" stroke="black" stroke-width="0.8" stroke-linecap="round" stroke-linejoin="round"/>
<path d="M7.40311 36.3602L6.72311 35.6802" stroke="black" stroke-width="0.8" stroke-linecap="round" stroke-linejoin="round"/>
<path d="M64.3469 1.84808V0.887085" stroke="black" stroke-width="0.8" stroke-linecap="round" stroke-linejoin="round"/>
<path d="M66.3871 2.69406L67.0671 2.01306" stroke="black" stroke-width="0.8" stroke-linecap="round" stroke-linejoin="round"/>
<path d="M67.232 4.73413H68.194" stroke="black" stroke-width="0.8" stroke-linecap="round" stroke-linejoin="round"/>
<path d="M66.3871 6.77502L67.0671 7.45502" stroke="black" stroke-width="0.8" stroke-linecap="round" stroke-linejoin="round"/>
<path d="M64.3469 7.62V8.582" stroke="black" stroke-width="0.8" stroke-linecap="round" stroke-linejoin="round"/>
<path d="M62.306 6.77502L61.626 7.45502" stroke="black" stroke-width="0.8" stroke-linecap="round" stroke-linejoin="round"/>
<path d="M61.461 4.73413H60.499" stroke="black" stroke-width="0.8" stroke-linecap="round" stroke-linejoin="round"/>
<path d="M62.306 2.69406L61.626 2.01306" stroke="black" stroke-width="0.8" stroke-linecap="round" stroke-linejoin="round"/>
<path d="M88.629 49.838V48.876" stroke="black" stroke-width="0.8" stroke-linecap="round" stroke-linejoin="round"/>
<path d="M90.6699 50.6842L91.3499 50.0032" stroke="black" stroke-width="0.8" stroke-linecap="round" stroke-linejoin="round"/>
<path d="M91.5151 52.7241H92.4771" stroke="black" stroke-width="0.8" stroke-linecap="round" stroke-linejoin="round"/>
<path d="M90.6699 54.7651L91.3499 55.4451" stroke="black" stroke-width="0.8" stroke-linecap="round" stroke-linejoin="round"/>
<path d="M88.629 55.6101V56.5721" stroke="black" stroke-width="0.8" stroke-linecap="round" stroke-linejoin="round"/>
<path d="M86.5891 54.7651L85.9091 55.4451" stroke="black" stroke-width="0.8" stroke-linecap="round" stroke-linejoin="round"/>
<path d="M85.7441 52.7241H84.7821" stroke="black" stroke-width="0.8" stroke-linecap="round" stroke-linejoin="round"/>
<path d="M86.5891 50.6842L85.9091 50.0032" stroke="black" stroke-width="0.8" stroke-linecap="round" stroke-linejoin="round"/>
<path d="M60.7291 34.621L59.6231 34.234C59.4641 34.1784 59.3175 34.0919 59.1919 33.9796C59.0663 33.8673 58.964 33.7314 58.891 33.5796C58.8179 33.4277 58.7754 33.263 58.766 33.0948C58.7566 32.9265 58.7804 32.7581 58.8361 32.599L59.1881 31.599C59.2438 31.44 59.2676 31.2716 59.2582 31.1033C59.2488 30.9351 59.2063 30.7704 59.1332 30.6185C59.0602 30.4667 58.9579 30.3308 58.8323 30.2185C58.7066 30.1062 58.5601 30.0197 58.4011 29.964L57.4011 29.613C57.2421 29.5574 57.0955 29.4709 56.9699 29.3586C56.8443 29.2463 56.742 29.1104 56.6689 28.9586C56.5959 28.8067 56.5534 28.642 56.544 28.4738C56.5346 28.3055 56.5584 28.1371 56.6141 27.978L56.9661 26.978C57.0218 26.8191 57.0456 26.6507 57.0362 26.4825C57.0267 26.3144 56.9843 26.1497 56.9112 25.998C56.8381 25.8462 56.7358 25.7104 56.6102 25.5982C56.4846 25.486 56.3381 25.3996 56.1791 25.344L55.1791 24.993C55.0201 24.9374 54.8735 24.8509 54.7479 24.7386C54.6223 24.6263 54.52 24.4904 54.4469 24.3386C54.3739 24.1867 54.3314 24.022 54.322 23.8538C54.3126 23.6855 54.3364 23.5171 54.3921 23.358L54.7441 22.358C54.7998 22.1991 54.8236 22.0307 54.8142 21.8625C54.8047 21.6944 54.7623 21.5297 54.6892 21.378C54.6161 21.2262 54.5138 21.0904 54.3882 20.9782C54.2626 20.866 54.1161 20.7796 53.9571 20.724L52.9571 20.373" stroke="black" stroke-width="0.8" stroke-linecap="round" stroke-linejoin="round"/>
<path d="M38.381 51.8281L37.561 50.9891C37.4432 50.8688 37.3503 50.7264 37.2876 50.5701C37.2249 50.4138 37.1936 50.2467 37.1956 50.0783C37.1975 49.9099 37.2327 49.7435 37.299 49.5887C37.3653 49.4339 37.4615 49.2937 37.582 49.1761L38.341 48.4331C38.5843 48.1953 38.7232 47.8707 38.7271 47.5305C38.731 47.1903 38.5997 46.8625 38.362 46.6191L37.619 45.8591C37.5013 45.7388 37.4084 45.5964 37.3457 45.4402C37.283 45.2839 37.2516 45.1168 37.2535 44.9485C37.2553 44.7801 37.2903 44.6138 37.3565 44.459C37.4226 44.3041 37.5186 44.1639 37.639 44.0461L38.399 43.3031C38.6423 43.0653 38.7812 42.7407 38.7851 42.4005C38.789 42.0603 38.6577 41.7325 38.42 41.4891L37.677 40.7291C37.5593 40.6088 37.4664 40.4664 37.4037 40.3102C37.341 40.1539 37.3096 39.9869 37.3115 39.8185C37.3133 39.6501 37.3483 39.4838 37.4145 39.329C37.4806 39.1741 37.5766 39.0339 37.697 38.9161L38.457 38.1731C38.7001 37.9352 38.8388 37.6105 38.8426 37.2703C38.8463 36.9301 38.7148 36.6024 38.477 36.3591L37.735 35.6001" stroke="black" stroke-width="0.8" stroke-linecap="round" stroke-linejoin="round"/>
<path d="M22.9529 57.224L21.7929 57.394C21.4564 57.4436 21.1139 57.3574 20.8409 57.1545C20.5679 56.9516 20.3866 56.6486 20.3369 56.312L20.1829 55.26C20.1584 55.0935 20.1014 54.9333 20.015 54.7888C19.9286 54.6442 19.8146 54.5181 19.6795 54.4177C19.5444 54.3172 19.3908 54.2443 19.2275 54.2032C19.0643 54.1621 18.8945 54.1535 18.7279 54.178L17.6759 54.332C17.5093 54.3566 17.3395 54.348 17.1763 54.3069C17.013 54.2658 16.8594 54.1929 16.7243 54.0924C16.5892 53.992 16.4752 53.8658 16.3888 53.7213C16.3024 53.5768 16.2454 53.4166 16.2209 53.25L16.0669 52.2C16.0424 52.0333 15.9853 51.8731 15.8989 51.7284C15.8125 51.5837 15.6984 51.4575 15.5632 51.357C15.428 51.2564 15.2743 51.1834 15.1109 51.1423C14.9475 51.1011 14.7776 51.0925 14.6109 51.117L13.5599 51.271C13.3933 51.2956 13.2235 51.287 13.0603 51.2459C12.897 51.2048 12.7434 51.1319 12.6083 51.0314C12.4732 50.931 12.3592 50.8048 12.2728 50.6603C12.1864 50.5158 12.1294 50.3556 12.1049 50.189L11.9499 49.138C11.9009 48.8022 11.7208 48.4996 11.4489 48.2964C11.1771 48.0932 10.8359 48.006 10.4999 48.054L9.44891 48.209" stroke="black" stroke-width="0.8" stroke-linecap="round" stroke-linejoin="round"/>
<path d="M94.3999 33.9L94.0849 35.03C94.0397 35.1922 93.9631 35.3439 93.8593 35.4765C93.7555 35.609 93.6266 35.7198 93.4799 35.8026C93.3333 35.8853 93.1718 35.9383 93.0047 35.9587C92.8376 35.979 92.6681 35.9662 92.5059 35.921L91.4819 35.636C91.1542 35.545 90.8039 35.5877 90.5076 35.7548C90.2114 35.9218 89.9936 36.1996 89.9019 36.527L89.6169 37.551C89.5717 37.7132 89.495 37.8649 89.3912 37.9975C89.2874 38.13 89.1586 38.2408 89.0119 38.3236C88.8653 38.4063 88.7038 38.4593 88.5367 38.4797C88.3696 38.5 88.2001 38.4872 88.0379 38.442L87.0139 38.157C86.6862 38.0658 86.3357 38.1083 86.0394 38.2754C85.7432 38.4425 85.5254 38.7204 85.4339 39.048L85.1489 40.072C85.1037 40.2342 85.027 40.3859 84.9232 40.5185C84.8194 40.651 84.6906 40.7618 84.5439 40.8446C84.3973 40.9273 84.2358 40.9803 84.0687 41.0007C83.9016 41.021 83.7321 41.0082 83.5699 40.963L82.5459 40.678C82.2181 40.5868 81.8675 40.6295 81.5712 40.7968C81.2749 40.9641 81.0571 41.2422 80.9659 41.57L80.6809 42.593" stroke="black" stroke-width="0.8" stroke-linecap="round" stroke-linejoin="round"/>
</svg>
